<mxfile host="app.diagrams.net" agent="Mozilla/5.0 (X11; Linux x86_64; rv:128.0) Gecko/20100101 Firefox/128.0" version="28.1.0" pages="2">
  <diagram name="Page-1" id="dmiFYl10dthxAOsOFa6Q">
    <mxGraphModel dx="2037" dy="2197" grid="1" gridSize="10" guides="1" tooltips="1" connect="1" arrows="1" fold="1" page="1" pageScale="1" pageWidth="850" pageHeight="1100" math="0" shadow="0">
      <root>
        <mxCell id="0" />
        <mxCell id="1" parent="0" />
        <mxCell id="3i2GIil342nl-OyHMSnb-143" value="" style="whiteSpace=wrap;html=1;" vertex="1" parent="1">
          <mxGeometry x="70" y="-50" width="1380" height="830" as="geometry" />
        </mxCell>
        <mxCell id="3i2GIil342nl-OyHMSnb-46" value="" style="whiteSpace=wrap;html=1;" vertex="1" parent="1">
          <mxGeometry x="110" y="40" width="700" height="720" as="geometry" />
        </mxCell>
        <mxCell id="3i2GIil342nl-OyHMSnb-31" value="" style="whiteSpace=wrap;html=1;" vertex="1" parent="1">
          <mxGeometry x="260" y="70" width="520" height="670" as="geometry" />
        </mxCell>
        <mxCell id="3i2GIil342nl-OyHMSnb-11" value="" style="whiteSpace=wrap;html=1;" vertex="1" parent="1">
          <mxGeometry x="350" y="120" width="400" height="220" as="geometry" />
        </mxCell>
        <mxCell id="3i2GIil342nl-OyHMSnb-1" value="" style="group" vertex="1" connectable="0" parent="1">
          <mxGeometry x="123" y="160" width="120" height="70" as="geometry" />
        </mxCell>
        <mxCell id="3i2GIil342nl-OyHMSnb-2" value="seq_handsake" style="shape=document;whiteSpace=wrap;html=1;boundedLbl=1;" vertex="1" parent="3i2GIil342nl-OyHMSnb-1">
          <mxGeometry width="106.66666666666666" height="58.333333333333336" as="geometry" />
        </mxCell>
        <mxCell id="3i2GIil342nl-OyHMSnb-3" value="seq_handsake" style="shape=document;whiteSpace=wrap;html=1;boundedLbl=1;" vertex="1" parent="3i2GIil342nl-OyHMSnb-1">
          <mxGeometry x="7.111111111111111" y="5.104166666666667" width="106.66666666666666" height="58.333333333333336" as="geometry" />
        </mxCell>
        <mxCell id="3i2GIil342nl-OyHMSnb-4" value="seq_handsake" style="shape=document;whiteSpace=wrap;html=1;boundedLbl=1;" vertex="1" parent="3i2GIil342nl-OyHMSnb-1">
          <mxGeometry x="13.333333333333332" y="11.666666666666668" width="106.66666666666666" height="58.333333333333336" as="geometry" />
        </mxCell>
        <mxCell id="3i2GIil342nl-OyHMSnb-8" style="edgeStyle=orthogonalEdgeStyle;rounded=0;orthogonalLoop=1;jettySize=auto;html=1;strokeWidth=2;" edge="1" parent="1" source="3i2GIil342nl-OyHMSnb-5" target="3i2GIil342nl-OyHMSnb-7">
          <mxGeometry relative="1" as="geometry" />
        </mxCell>
        <mxCell id="3i2GIil342nl-OyHMSnb-5" value="Sequencer" style="whiteSpace=wrap;html=1;" vertex="1" parent="1">
          <mxGeometry x="374" y="170" width="120" height="60" as="geometry" />
        </mxCell>
        <mxCell id="3i2GIil342nl-OyHMSnb-10" style="edgeStyle=orthogonalEdgeStyle;rounded=0;orthogonalLoop=1;jettySize=auto;html=1;entryX=0.5;entryY=0;entryDx=0;entryDy=0;strokeWidth=2;" edge="1" parent="1" source="3i2GIil342nl-OyHMSnb-7" target="3i2GIil342nl-OyHMSnb-9">
          <mxGeometry relative="1" as="geometry" />
        </mxCell>
        <mxCell id="3i2GIil342nl-OyHMSnb-92" style="edgeStyle=orthogonalEdgeStyle;rounded=0;orthogonalLoop=1;jettySize=auto;html=1;strokeWidth=2;" edge="1" parent="1" source="3i2GIil342nl-OyHMSnb-7" target="3i2GIil342nl-OyHMSnb-48">
          <mxGeometry relative="1" as="geometry" />
        </mxCell>
        <mxCell id="3i2GIil342nl-OyHMSnb-7" value="Driver" style="whiteSpace=wrap;html=1;" vertex="1" parent="1">
          <mxGeometry x="540" y="170" width="120" height="60" as="geometry" />
        </mxCell>
        <mxCell id="3i2GIil342nl-OyHMSnb-9" value="Monitor" style="whiteSpace=wrap;html=1;fillColor=#dae8fc;strokeColor=#6c8ebf;" vertex="1" parent="1">
          <mxGeometry x="540" y="260" width="120" height="60" as="geometry" />
        </mxCell>
        <mxCell id="3i2GIil342nl-OyHMSnb-12" style="edgeStyle=orthogonalEdgeStyle;rounded=0;orthogonalLoop=1;jettySize=auto;html=1;exitX=1;exitY=0.5;exitDx=0;exitDy=0;strokeWidth=2;" edge="1" parent="1" source="3i2GIil342nl-OyHMSnb-4" target="3i2GIil342nl-OyHMSnb-5">
          <mxGeometry relative="1" as="geometry" />
        </mxCell>
        <mxCell id="3i2GIil342nl-OyHMSnb-13" value="&lt;font style=&quot;font-size: 14px;&quot;&gt;&lt;b&gt;Driver Agent&lt;/b&gt;&lt;/font&gt;" style="text;html=1;align=center;verticalAlign=middle;resizable=0;points=[];autosize=1;strokeColor=none;fillColor=none;" vertex="1" parent="1">
          <mxGeometry x="364" y="130" width="110" height="30" as="geometry" />
        </mxCell>
        <mxCell id="3i2GIil342nl-OyHMSnb-14" value="" style="whiteSpace=wrap;html=1;" vertex="1" parent="1">
          <mxGeometry x="350" y="500" width="400" height="220" as="geometry" />
        </mxCell>
        <mxCell id="3i2GIil342nl-OyHMSnb-28" style="edgeStyle=orthogonalEdgeStyle;rounded=0;orthogonalLoop=1;jettySize=auto;html=1;strokeWidth=2;" edge="1" parent="1" source="3i2GIil342nl-OyHMSnb-19" target="3i2GIil342nl-OyHMSnb-27">
          <mxGeometry relative="1" as="geometry" />
        </mxCell>
        <mxCell id="3i2GIil342nl-OyHMSnb-19" value="Monitor" style="whiteSpace=wrap;html=1;fillColor=#dae8fc;strokeColor=#6c8ebf;" vertex="1" parent="1">
          <mxGeometry x="540" y="520" width="120" height="60" as="geometry" />
        </mxCell>
        <mxCell id="3i2GIil342nl-OyHMSnb-20" value="&lt;font style=&quot;font-size: 14px;&quot;&gt;&lt;b&gt;Consumer Agent&lt;/b&gt;&lt;/font&gt;" style="text;html=1;align=center;verticalAlign=middle;resizable=0;points=[];autosize=1;strokeColor=none;fillColor=none;" vertex="1" parent="1">
          <mxGeometry x="349" y="510" width="140" height="30" as="geometry" />
        </mxCell>
        <mxCell id="3i2GIil342nl-OyHMSnb-21" value="Scoreboard" style="whiteSpace=wrap;html=1;" vertex="1" parent="1">
          <mxGeometry x="540" y="390" width="120" height="60" as="geometry" />
        </mxCell>
        <mxCell id="3i2GIil342nl-OyHMSnb-22" value="Coverage" style="whiteSpace=wrap;html=1;" vertex="1" parent="1">
          <mxGeometry x="380" y="390" width="120" height="60" as="geometry" />
        </mxCell>
        <mxCell id="3i2GIil342nl-OyHMSnb-25" value="" style="edgeStyle=orthogonalEdgeStyle;rounded=0;orthogonalLoop=1;jettySize=auto;html=1;strokeWidth=2;" edge="1" parent="1" source="3i2GIil342nl-OyHMSnb-23" target="3i2GIil342nl-OyHMSnb-21">
          <mxGeometry relative="1" as="geometry" />
        </mxCell>
        <mxCell id="3i2GIil342nl-OyHMSnb-26" style="edgeStyle=orthogonalEdgeStyle;rounded=0;orthogonalLoop=1;jettySize=auto;html=1;strokeWidth=2;" edge="1" parent="1" source="3i2GIil342nl-OyHMSnb-23" target="3i2GIil342nl-OyHMSnb-22">
          <mxGeometry relative="1" as="geometry" />
        </mxCell>
        <mxCell id="3i2GIil342nl-OyHMSnb-23" value="" style="shape=waypoint;sketch=0;size=6;pointerEvents=1;points=[];fillColor=none;resizable=0;rotatable=0;perimeter=centerPerimeter;snapToPoint=1;" vertex="1" parent="1">
          <mxGeometry x="590" y="350" width="20" height="20" as="geometry" />
        </mxCell>
        <mxCell id="3i2GIil342nl-OyHMSnb-24" style="edgeStyle=orthogonalEdgeStyle;rounded=0;orthogonalLoop=1;jettySize=auto;html=1;entryX=0.5;entryY=0.8;entryDx=0;entryDy=0;entryPerimeter=0;strokeWidth=2;" edge="1" parent="1" source="3i2GIil342nl-OyHMSnb-9" target="3i2GIil342nl-OyHMSnb-23">
          <mxGeometry relative="1" as="geometry" />
        </mxCell>
        <mxCell id="3i2GIil342nl-OyHMSnb-29" style="edgeStyle=orthogonalEdgeStyle;rounded=0;orthogonalLoop=1;jettySize=auto;html=1;entryX=0.5;entryY=1;entryDx=0;entryDy=0;strokeWidth=2;" edge="1" parent="1" source="3i2GIil342nl-OyHMSnb-27" target="3i2GIil342nl-OyHMSnb-21">
          <mxGeometry relative="1" as="geometry" />
        </mxCell>
        <mxCell id="3i2GIil342nl-OyHMSnb-30" style="edgeStyle=orthogonalEdgeStyle;rounded=0;orthogonalLoop=1;jettySize=auto;html=1;strokeWidth=2;" edge="1" parent="1" source="3i2GIil342nl-OyHMSnb-27" target="3i2GIil342nl-OyHMSnb-22">
          <mxGeometry relative="1" as="geometry" />
        </mxCell>
        <mxCell id="3i2GIil342nl-OyHMSnb-27" value="" style="shape=waypoint;sketch=0;size=6;pointerEvents=1;points=[];fillColor=none;resizable=0;rotatable=0;perimeter=centerPerimeter;snapToPoint=1;" vertex="1" parent="1">
          <mxGeometry x="590" y="470" width="20" height="20" as="geometry" />
        </mxCell>
        <mxCell id="3i2GIil342nl-OyHMSnb-32" value="&lt;font style=&quot;font-size: 18px;&quot;&gt;&lt;b&gt;Environment&lt;/b&gt;&lt;/font&gt;" style="text;html=1;align=center;verticalAlign=middle;resizable=0;points=[];autosize=1;strokeColor=none;fillColor=none;" vertex="1" parent="1">
          <mxGeometry x="300" y="80" width="130" height="40" as="geometry" />
        </mxCell>
        <mxCell id="3i2GIil342nl-OyHMSnb-44" value="&lt;b&gt;&lt;font style=&quot;font-size: 18px;&quot;&gt;Dummy Slave&lt;/font&gt;&lt;br&gt;&lt;/b&gt;" style="whiteSpace=wrap;html=1;" vertex="1" parent="1">
          <mxGeometry x="1255" y="210" width="110" height="310" as="geometry" />
        </mxCell>
        <mxCell id="3i2GIil342nl-OyHMSnb-47" value="&lt;font style=&quot;font-size: 18px;&quot;&gt;&lt;b&gt;TEST&lt;/b&gt;&lt;/font&gt;" style="text;html=1;align=center;verticalAlign=middle;resizable=0;points=[];autosize=1;strokeColor=none;fillColor=none;" vertex="1" parent="1">
          <mxGeometry x="120" y="50" width="70" height="40" as="geometry" />
        </mxCell>
        <mxCell id="3i2GIil342nl-OyHMSnb-48" value="Virtual IF" style="whiteSpace=wrap;html=1;fillColor=#fad9d5;strokeColor=#ae4132;" vertex="1" parent="1">
          <mxGeometry x="690" y="170" width="40" height="60" as="geometry" />
        </mxCell>
        <mxCell id="3i2GIil342nl-OyHMSnb-51" style="edgeStyle=orthogonalEdgeStyle;rounded=0;orthogonalLoop=1;jettySize=auto;html=1;strokeWidth=2;" edge="1" parent="1" source="3i2GIil342nl-OyHMSnb-50" target="3i2GIil342nl-OyHMSnb-19">
          <mxGeometry relative="1" as="geometry" />
        </mxCell>
        <mxCell id="3i2GIil342nl-OyHMSnb-50" value="Virtual IF" style="whiteSpace=wrap;html=1;fillColor=#fad9d5;strokeColor=#ae4132;" vertex="1" parent="1">
          <mxGeometry x="690" y="520" width="40" height="60" as="geometry" />
        </mxCell>
        <mxCell id="3i2GIil342nl-OyHMSnb-54" value="" style="shape=waypoint;sketch=0;size=6;pointerEvents=1;points=[];fillColor=none;resizable=0;rotatable=0;perimeter=centerPerimeter;snapToPoint=1;" vertex="1" parent="1">
          <mxGeometry x="837" y="190" width="20" height="20" as="geometry" />
        </mxCell>
        <mxCell id="3i2GIil342nl-OyHMSnb-55" style="edgeStyle=orthogonalEdgeStyle;rounded=0;orthogonalLoop=1;jettySize=auto;html=1;entryX=0.75;entryY=0.3;entryDx=0;entryDy=0;entryPerimeter=0;strokeWidth=2;" edge="1" parent="1" source="3i2GIil342nl-OyHMSnb-48" target="3i2GIil342nl-OyHMSnb-54">
          <mxGeometry relative="1" as="geometry" />
        </mxCell>
        <mxCell id="3i2GIil342nl-OyHMSnb-57" style="edgeStyle=orthogonalEdgeStyle;rounded=0;orthogonalLoop=1;jettySize=auto;html=1;strokeWidth=2;" edge="1" parent="1" source="3i2GIil342nl-OyHMSnb-56" target="3i2GIil342nl-OyHMSnb-50">
          <mxGeometry relative="1" as="geometry" />
        </mxCell>
        <mxCell id="3i2GIil342nl-OyHMSnb-56" value="" style="shape=waypoint;sketch=0;size=6;pointerEvents=1;points=[];fillColor=none;resizable=0;rotatable=0;perimeter=centerPerimeter;snapToPoint=1;" vertex="1" parent="1">
          <mxGeometry x="837" y="540" width="20" height="20" as="geometry" />
        </mxCell>
        <mxCell id="3i2GIil342nl-OyHMSnb-59" value="DB" style="rounded=1;whiteSpace=wrap;html=1;fillColor=#fff2cc;strokeColor=#d6b656;" vertex="1" parent="1">
          <mxGeometry x="375" y="280" width="70" height="40" as="geometry" />
        </mxCell>
        <mxCell id="3i2GIil342nl-OyHMSnb-60" value="DB" style="rounded=1;whiteSpace=wrap;html=1;fillColor=#fff2cc;strokeColor=#d6b656;" vertex="1" parent="1">
          <mxGeometry x="375" y="660" width="70" height="40" as="geometry" />
        </mxCell>
        <mxCell id="3i2GIil342nl-OyHMSnb-64" value="DB" style="rounded=1;whiteSpace=wrap;html=1;fillColor=#fff2cc;strokeColor=#d6b656;" vertex="1" parent="1">
          <mxGeometry x="280" y="400" width="70" height="40" as="geometry" />
        </mxCell>
        <mxCell id="3i2GIil342nl-OyHMSnb-67" value="List" style="swimlane;fontStyle=0;childLayout=stackLayout;horizontal=1;startSize=30;horizontalStack=0;resizeParent=1;resizeParentMax=0;resizeLast=0;collapsible=1;marginBottom=0;whiteSpace=wrap;html=1;" vertex="1" parent="1">
          <mxGeometry x="1000" y="210" width="140" height="330" as="geometry" />
        </mxCell>
        <mxCell id="3i2GIil342nl-OyHMSnb-68" value="Item 1" style="text;strokeColor=none;fillColor=none;align=left;verticalAlign=middle;spacingLeft=4;spacingRight=4;overflow=hidden;points=[[0,0.5],[1,0.5]];portConstraint=eastwest;rotatable=0;whiteSpace=wrap;html=1;" vertex="1" parent="3i2GIil342nl-OyHMSnb-67">
          <mxGeometry y="30" width="140" height="30" as="geometry" />
        </mxCell>
        <mxCell id="3i2GIil342nl-OyHMSnb-69" value="Item 2" style="text;strokeColor=none;fillColor=none;align=left;verticalAlign=middle;spacingLeft=4;spacingRight=4;overflow=hidden;points=[[0,0.5],[1,0.5]];portConstraint=eastwest;rotatable=0;whiteSpace=wrap;html=1;" vertex="1" parent="3i2GIil342nl-OyHMSnb-67">
          <mxGeometry y="60" width="140" height="30" as="geometry" />
        </mxCell>
        <mxCell id="3i2GIil342nl-OyHMSnb-70" value="Item 3" style="text;strokeColor=none;fillColor=none;align=left;verticalAlign=middle;spacingLeft=4;spacingRight=4;overflow=hidden;points=[[0,0.5],[1,0.5]];portConstraint=eastwest;rotatable=0;whiteSpace=wrap;html=1;" vertex="1" parent="3i2GIil342nl-OyHMSnb-67">
          <mxGeometry y="90" width="140" height="30" as="geometry" />
        </mxCell>
        <mxCell id="3i2GIil342nl-OyHMSnb-72" value="Item 1" style="text;strokeColor=none;fillColor=none;align=left;verticalAlign=middle;spacingLeft=4;spacingRight=4;overflow=hidden;points=[[0,0.5],[1,0.5]];portConstraint=eastwest;rotatable=0;whiteSpace=wrap;html=1;" vertex="1" parent="3i2GIil342nl-OyHMSnb-67">
          <mxGeometry y="120" width="140" height="30" as="geometry" />
        </mxCell>
        <mxCell id="3i2GIil342nl-OyHMSnb-71" value="Item 3" style="text;strokeColor=none;fillColor=none;align=left;verticalAlign=middle;spacingLeft=4;spacingRight=4;overflow=hidden;points=[[0,0.5],[1,0.5]];portConstraint=eastwest;rotatable=0;whiteSpace=wrap;html=1;" vertex="1" parent="3i2GIil342nl-OyHMSnb-67">
          <mxGeometry y="150" width="140" height="30" as="geometry" />
        </mxCell>
        <mxCell id="3i2GIil342nl-OyHMSnb-129" value="Item 1" style="text;strokeColor=none;fillColor=none;align=left;verticalAlign=middle;spacingLeft=4;spacingRight=4;overflow=hidden;points=[[0,0.5],[1,0.5]];portConstraint=eastwest;rotatable=0;whiteSpace=wrap;html=1;" vertex="1" parent="3i2GIil342nl-OyHMSnb-67">
          <mxGeometry y="180" width="140" height="30" as="geometry" />
        </mxCell>
        <mxCell id="3i2GIil342nl-OyHMSnb-74" value="Item 1" style="text;strokeColor=none;fillColor=none;align=left;verticalAlign=middle;spacingLeft=4;spacingRight=4;overflow=hidden;points=[[0,0.5],[1,0.5]];portConstraint=eastwest;rotatable=0;whiteSpace=wrap;html=1;" vertex="1" parent="3i2GIil342nl-OyHMSnb-67">
          <mxGeometry y="210" width="140" height="30" as="geometry" />
        </mxCell>
        <mxCell id="3i2GIil342nl-OyHMSnb-78" value="Item 1" style="text;strokeColor=none;fillColor=none;align=left;verticalAlign=middle;spacingLeft=4;spacingRight=4;overflow=hidden;points=[[0,0.5],[1,0.5]];portConstraint=eastwest;rotatable=0;whiteSpace=wrap;html=1;" vertex="1" parent="3i2GIil342nl-OyHMSnb-67">
          <mxGeometry y="240" width="140" height="30" as="geometry" />
        </mxCell>
        <mxCell id="3i2GIil342nl-OyHMSnb-75" value="Item 1" style="text;strokeColor=none;fillColor=none;align=left;verticalAlign=middle;spacingLeft=4;spacingRight=4;overflow=hidden;points=[[0,0.5],[1,0.5]];portConstraint=eastwest;rotatable=0;whiteSpace=wrap;html=1;" vertex="1" parent="3i2GIil342nl-OyHMSnb-67">
          <mxGeometry y="270" width="140" height="30" as="geometry" />
        </mxCell>
        <mxCell id="3i2GIil342nl-OyHMSnb-76" value="Item 1" style="text;strokeColor=none;fillColor=none;align=left;verticalAlign=middle;spacingLeft=4;spacingRight=4;overflow=hidden;points=[[0,0.5],[1,0.5]];portConstraint=eastwest;rotatable=0;whiteSpace=wrap;html=1;" vertex="1" parent="3i2GIil342nl-OyHMSnb-67">
          <mxGeometry y="300" width="140" height="30" as="geometry" />
        </mxCell>
        <mxCell id="3i2GIil342nl-OyHMSnb-79" value="List" style="swimlane;fontStyle=0;childLayout=stackLayout;horizontal=1;startSize=30;horizontalStack=0;resizeParent=1;resizeParentMax=0;resizeLast=0;collapsible=1;marginBottom=0;whiteSpace=wrap;html=1;" vertex="1" parent="1">
          <mxGeometry x="860" y="210" width="20" height="330" as="geometry" />
        </mxCell>
        <mxCell id="3i2GIil342nl-OyHMSnb-80" value="Item 1" style="text;strokeColor=none;fillColor=none;align=left;verticalAlign=middle;spacingLeft=4;spacingRight=4;overflow=hidden;points=[[0,0.5],[1,0.5]];portConstraint=eastwest;rotatable=0;whiteSpace=wrap;html=1;" vertex="1" parent="3i2GIil342nl-OyHMSnb-79">
          <mxGeometry y="30" width="20" height="30" as="geometry" />
        </mxCell>
        <mxCell id="3i2GIil342nl-OyHMSnb-81" value="Item 2" style="text;strokeColor=none;fillColor=none;align=left;verticalAlign=middle;spacingLeft=4;spacingRight=4;overflow=hidden;points=[[0,0.5],[1,0.5]];portConstraint=eastwest;rotatable=0;whiteSpace=wrap;html=1;" vertex="1" parent="3i2GIil342nl-OyHMSnb-79">
          <mxGeometry y="60" width="20" height="30" as="geometry" />
        </mxCell>
        <mxCell id="3i2GIil342nl-OyHMSnb-82" value="Item 3" style="text;strokeColor=none;fillColor=none;align=left;verticalAlign=middle;spacingLeft=4;spacingRight=4;overflow=hidden;points=[[0,0.5],[1,0.5]];portConstraint=eastwest;rotatable=0;whiteSpace=wrap;html=1;" vertex="1" parent="3i2GIil342nl-OyHMSnb-79">
          <mxGeometry y="90" width="20" height="30" as="geometry" />
        </mxCell>
        <mxCell id="3i2GIil342nl-OyHMSnb-83" value="Item 1" style="text;strokeColor=none;fillColor=none;align=left;verticalAlign=middle;spacingLeft=4;spacingRight=4;overflow=hidden;points=[[0,0.5],[1,0.5]];portConstraint=eastwest;rotatable=0;whiteSpace=wrap;html=1;" vertex="1" parent="3i2GIil342nl-OyHMSnb-79">
          <mxGeometry y="120" width="20" height="30" as="geometry" />
        </mxCell>
        <mxCell id="3i2GIil342nl-OyHMSnb-84" value="Item 3" style="text;strokeColor=none;fillColor=none;align=left;verticalAlign=middle;spacingLeft=4;spacingRight=4;overflow=hidden;points=[[0,0.5],[1,0.5]];portConstraint=eastwest;rotatable=0;whiteSpace=wrap;html=1;" vertex="1" parent="3i2GIil342nl-OyHMSnb-79">
          <mxGeometry y="150" width="20" height="30" as="geometry" />
        </mxCell>
        <mxCell id="3i2GIil342nl-OyHMSnb-130" value="Item 1" style="text;strokeColor=none;fillColor=none;align=left;verticalAlign=middle;spacingLeft=4;spacingRight=4;overflow=hidden;points=[[0,0.5],[1,0.5]];portConstraint=eastwest;rotatable=0;whiteSpace=wrap;html=1;" vertex="1" parent="3i2GIil342nl-OyHMSnb-79">
          <mxGeometry y="180" width="20" height="30" as="geometry" />
        </mxCell>
        <mxCell id="3i2GIil342nl-OyHMSnb-85" value="Item 1" style="text;strokeColor=none;fillColor=none;align=left;verticalAlign=middle;spacingLeft=4;spacingRight=4;overflow=hidden;points=[[0,0.5],[1,0.5]];portConstraint=eastwest;rotatable=0;whiteSpace=wrap;html=1;" vertex="1" parent="3i2GIil342nl-OyHMSnb-79">
          <mxGeometry y="210" width="20" height="30" as="geometry" />
        </mxCell>
        <mxCell id="3i2GIil342nl-OyHMSnb-86" value="Item 1" style="text;strokeColor=none;fillColor=none;align=left;verticalAlign=middle;spacingLeft=4;spacingRight=4;overflow=hidden;points=[[0,0.5],[1,0.5]];portConstraint=eastwest;rotatable=0;whiteSpace=wrap;html=1;" vertex="1" parent="3i2GIil342nl-OyHMSnb-79">
          <mxGeometry y="240" width="20" height="30" as="geometry" />
        </mxCell>
        <mxCell id="3i2GIil342nl-OyHMSnb-87" value="Item 1" style="text;strokeColor=none;fillColor=none;align=left;verticalAlign=middle;spacingLeft=4;spacingRight=4;overflow=hidden;points=[[0,0.5],[1,0.5]];portConstraint=eastwest;rotatable=0;whiteSpace=wrap;html=1;" vertex="1" parent="3i2GIil342nl-OyHMSnb-79">
          <mxGeometry y="270" width="20" height="30" as="geometry" />
        </mxCell>
        <mxCell id="3i2GIil342nl-OyHMSnb-88" value="Item 1" style="text;strokeColor=none;fillColor=none;align=left;verticalAlign=middle;spacingLeft=4;spacingRight=4;overflow=hidden;points=[[0,0.5],[1,0.5]];portConstraint=eastwest;rotatable=0;whiteSpace=wrap;html=1;" vertex="1" parent="3i2GIil342nl-OyHMSnb-79">
          <mxGeometry y="300" width="20" height="30" as="geometry" />
        </mxCell>
        <mxCell id="3i2GIil342nl-OyHMSnb-94" value="rst_n" style="text;html=1;align=center;verticalAlign=middle;resizable=0;points=[];autosize=1;strokeColor=none;fillColor=none;" vertex="1" parent="1">
          <mxGeometry x="891" y="225" width="50" height="30" as="geometry" />
        </mxCell>
        <mxCell id="3i2GIil342nl-OyHMSnb-95" style="edgeStyle=orthogonalEdgeStyle;rounded=0;orthogonalLoop=1;jettySize=auto;html=1;" edge="1" parent="1" source="3i2GIil342nl-OyHMSnb-81" target="3i2GIil342nl-OyHMSnb-69">
          <mxGeometry relative="1" as="geometry" />
        </mxCell>
        <mxCell id="3i2GIil342nl-OyHMSnb-96" value="start" style="text;html=1;align=center;verticalAlign=middle;resizable=0;points=[];autosize=1;strokeColor=none;fillColor=none;" vertex="1" parent="1">
          <mxGeometry x="894" y="256" width="50" height="30" as="geometry" />
        </mxCell>
        <mxCell id="3i2GIil342nl-OyHMSnb-97" style="edgeStyle=orthogonalEdgeStyle;rounded=0;orthogonalLoop=1;jettySize=auto;html=1;strokeWidth=1;" edge="1" parent="1" source="3i2GIil342nl-OyHMSnb-82" target="3i2GIil342nl-OyHMSnb-70">
          <mxGeometry relative="1" as="geometry" />
        </mxCell>
        <mxCell id="3i2GIil342nl-OyHMSnb-98" value="tx_data[7:0]" style="text;html=1;align=center;verticalAlign=middle;resizable=0;points=[];autosize=1;strokeColor=none;fillColor=none;" vertex="1" parent="1">
          <mxGeometry x="882" y="286" width="90" height="30" as="geometry" />
        </mxCell>
        <mxCell id="3i2GIil342nl-OyHMSnb-99" style="edgeStyle=orthogonalEdgeStyle;rounded=0;orthogonalLoop=1;jettySize=auto;html=1;" edge="1" parent="1" source="3i2GIil342nl-OyHMSnb-72" target="3i2GIil342nl-OyHMSnb-83">
          <mxGeometry relative="1" as="geometry" />
        </mxCell>
        <mxCell id="3i2GIil342nl-OyHMSnb-100" value="busy" style="text;html=1;align=center;verticalAlign=middle;resizable=0;points=[];autosize=1;strokeColor=none;fillColor=none;" vertex="1" parent="1">
          <mxGeometry x="895" y="315" width="50" height="30" as="geometry" />
        </mxCell>
        <mxCell id="3i2GIil342nl-OyHMSnb-101" style="edgeStyle=orthogonalEdgeStyle;rounded=0;orthogonalLoop=1;jettySize=auto;html=1;" edge="1" parent="1" source="3i2GIil342nl-OyHMSnb-71" target="3i2GIil342nl-OyHMSnb-84">
          <mxGeometry relative="1" as="geometry" />
        </mxCell>
        <mxCell id="3i2GIil342nl-OyHMSnb-102" value="done" style="text;html=1;align=center;verticalAlign=middle;resizable=0;points=[];autosize=1;strokeColor=none;fillColor=none;" vertex="1" parent="1">
          <mxGeometry x="896" y="345" width="50" height="30" as="geometry" />
        </mxCell>
        <mxCell id="3i2GIil342nl-OyHMSnb-104" style="edgeStyle=orthogonalEdgeStyle;rounded=0;orthogonalLoop=1;jettySize=auto;html=1;entryX=1;entryY=0.5;entryDx=0;entryDy=0;" edge="1" parent="1" source="3i2GIil342nl-OyHMSnb-74" target="3i2GIil342nl-OyHMSnb-85">
          <mxGeometry relative="1" as="geometry" />
        </mxCell>
        <mxCell id="3i2GIil342nl-OyHMSnb-105" value="sclk" style="text;html=1;align=center;verticalAlign=middle;resizable=0;points=[];autosize=1;strokeColor=none;fillColor=none;" vertex="1" parent="1">
          <mxGeometry x="907" y="407" width="40" height="30" as="geometry" />
        </mxCell>
        <mxCell id="3i2GIil342nl-OyHMSnb-106" style="edgeStyle=orthogonalEdgeStyle;rounded=0;orthogonalLoop=1;jettySize=auto;html=1;" edge="1" parent="1" source="3i2GIil342nl-OyHMSnb-78" target="3i2GIil342nl-OyHMSnb-86">
          <mxGeometry relative="1" as="geometry" />
        </mxCell>
        <mxCell id="3i2GIil342nl-OyHMSnb-107" value="mosi" style="text;html=1;align=center;verticalAlign=middle;resizable=0;points=[];autosize=1;strokeColor=none;fillColor=none;" vertex="1" parent="1">
          <mxGeometry x="900" y="434" width="50" height="30" as="geometry" />
        </mxCell>
        <mxCell id="3i2GIil342nl-OyHMSnb-108" style="edgeStyle=orthogonalEdgeStyle;rounded=0;orthogonalLoop=1;jettySize=auto;html=1;entryX=1;entryY=0.5;entryDx=0;entryDy=0;" edge="1" parent="1" source="3i2GIil342nl-OyHMSnb-76" target="3i2GIil342nl-OyHMSnb-88">
          <mxGeometry relative="1" as="geometry" />
        </mxCell>
        <mxCell id="3i2GIil342nl-OyHMSnb-109" value="cs_n" style="text;html=1;align=center;verticalAlign=middle;resizable=0;points=[];autosize=1;strokeColor=none;fillColor=none;" vertex="1" parent="1">
          <mxGeometry x="902" y="495" width="50" height="30" as="geometry" />
        </mxCell>
        <mxCell id="3i2GIil342nl-OyHMSnb-127" style="edgeStyle=orthogonalEdgeStyle;rounded=0;orthogonalLoop=1;jettySize=auto;html=1;" edge="1" parent="1" source="3i2GIil342nl-OyHMSnb-121" target="3i2GIil342nl-OyHMSnb-68">
          <mxGeometry relative="1" as="geometry" />
        </mxCell>
        <mxCell id="3i2GIil342nl-OyHMSnb-121" value="" style="shape=waypoint;sketch=0;size=6;pointerEvents=1;points=[];fillColor=none;resizable=0;rotatable=0;perimeter=centerPerimeter;snapToPoint=1;" vertex="1" parent="1">
          <mxGeometry x="930" y="245" width="20" height="20" as="geometry" />
        </mxCell>
        <mxCell id="3i2GIil342nl-OyHMSnb-122" style="edgeStyle=orthogonalEdgeStyle;rounded=0;orthogonalLoop=1;jettySize=auto;html=1;entryX=1.15;entryY=0.542;entryDx=0;entryDy=0;entryPerimeter=0;" edge="1" parent="1" source="3i2GIil342nl-OyHMSnb-80" target="3i2GIil342nl-OyHMSnb-121">
          <mxGeometry relative="1" as="geometry" />
        </mxCell>
        <mxCell id="3i2GIil342nl-OyHMSnb-123" value="" style="shape=waypoint;sketch=0;size=6;pointerEvents=1;points=[];fillColor=none;resizable=0;rotatable=0;perimeter=centerPerimeter;snapToPoint=1;" vertex="1" parent="1">
          <mxGeometry x="1245" y="425" width="20" height="20" as="geometry" />
        </mxCell>
        <mxCell id="3i2GIil342nl-OyHMSnb-125" value="" style="shape=waypoint;sketch=0;size=6;pointerEvents=1;points=[];fillColor=none;resizable=0;rotatable=0;perimeter=centerPerimeter;snapToPoint=1;" vertex="1" parent="1">
          <mxGeometry x="1245" y="291" width="20" height="20" as="geometry" />
        </mxCell>
        <mxCell id="3i2GIil342nl-OyHMSnb-126" style="edgeStyle=orthogonalEdgeStyle;rounded=0;orthogonalLoop=1;jettySize=auto;html=1;entryX=0.4;entryY=0.85;entryDx=0;entryDy=0;entryPerimeter=0;jumpStyle=arc;" edge="1" parent="1" source="3i2GIil342nl-OyHMSnb-121" target="3i2GIil342nl-OyHMSnb-125">
          <mxGeometry relative="1" as="geometry">
            <Array as="points">
              <mxPoint x="940" y="30" />
              <mxPoint x="1200" y="30" />
              <mxPoint x="1200" y="301" />
            </Array>
          </mxGeometry>
        </mxCell>
        <mxCell id="3i2GIil342nl-OyHMSnb-128" value="sclk" style="text;html=1;align=center;verticalAlign=middle;resizable=0;points=[];autosize=1;strokeColor=none;fillColor=none;" vertex="1" parent="1">
          <mxGeometry x="1211" y="404" width="40" height="30" as="geometry" />
        </mxCell>
        <mxCell id="3i2GIil342nl-OyHMSnb-131" style="edgeStyle=orthogonalEdgeStyle;rounded=0;orthogonalLoop=1;jettySize=auto;html=1;" edge="1" parent="1" source="3i2GIil342nl-OyHMSnb-129" target="3i2GIil342nl-OyHMSnb-130">
          <mxGeometry relative="1" as="geometry" />
        </mxCell>
        <mxCell id="3i2GIil342nl-OyHMSnb-132" value="rx_data[7:0]" style="text;html=1;align=center;verticalAlign=middle;resizable=0;points=[];autosize=1;strokeColor=none;fillColor=none;" vertex="1" parent="1">
          <mxGeometry x="885" y="376" width="90" height="30" as="geometry" />
        </mxCell>
        <mxCell id="3i2GIil342nl-OyHMSnb-134" style="edgeStyle=orthogonalEdgeStyle;rounded=0;orthogonalLoop=1;jettySize=auto;html=1;entryX=0.626;entryY=0.788;entryDx=0;entryDy=0;entryPerimeter=0;" edge="1" parent="1" source="3i2GIil342nl-OyHMSnb-74" target="3i2GIil342nl-OyHMSnb-123">
          <mxGeometry relative="1" as="geometry" />
        </mxCell>
        <mxCell id="iMnmVTUVPVu9cU5X2Qjm-4" style="edgeStyle=orthogonalEdgeStyle;rounded=0;orthogonalLoop=1;jettySize=auto;html=1;" edge="1" parent="1" source="3i2GIil342nl-OyHMSnb-135" target="iMnmVTUVPVu9cU5X2Qjm-2">
          <mxGeometry relative="1" as="geometry" />
        </mxCell>
        <mxCell id="3i2GIil342nl-OyHMSnb-135" value="" style="shape=waypoint;sketch=0;size=6;pointerEvents=1;points=[];fillColor=none;resizable=0;rotatable=0;perimeter=centerPerimeter;snapToPoint=1;" vertex="1" parent="1">
          <mxGeometry x="1245" y="365" width="20" height="20" as="geometry" />
        </mxCell>
        <mxCell id="3i2GIil342nl-OyHMSnb-137" value="miso" style="text;html=1;align=center;verticalAlign=middle;resizable=0;points=[];autosize=1;strokeColor=none;fillColor=none;" vertex="1" parent="1">
          <mxGeometry x="1200" y="347" width="50" height="30" as="geometry" />
        </mxCell>
        <mxCell id="3i2GIil342nl-OyHMSnb-52" value="&lt;b&gt;&lt;font style=&quot;font-size: 24px;&quot;&gt;IF&lt;/font&gt;&lt;/b&gt;" style="whiteSpace=wrap;html=1;fillColor=#f5f5f5;strokeColor=#666666;fontColor=#333333;" vertex="1" parent="1">
          <mxGeometry x="850" y="60" width="30" height="670" as="geometry" />
        </mxCell>
        <mxCell id="3i2GIil342nl-OyHMSnb-138" value="&lt;b&gt;&lt;font style=&quot;font-size: 18px;&quot;&gt;SVA&lt;br&gt;(Binding)&lt;br&gt;&lt;/font&gt;&lt;/b&gt;" style="rounded=1;whiteSpace=wrap;html=1;dashed=1;" vertex="1" parent="1">
          <mxGeometry x="1255" y="560" width="110" height="110" as="geometry" />
        </mxCell>
        <mxCell id="3i2GIil342nl-OyHMSnb-140" value="" style="shape=waypoint;sketch=0;size=6;pointerEvents=1;points=[];fillColor=none;resizable=0;rotatable=0;perimeter=centerPerimeter;snapToPoint=1;" vertex="1" parent="1">
          <mxGeometry x="1131" y="605" width="20" height="20" as="geometry" />
        </mxCell>
        <mxCell id="3i2GIil342nl-OyHMSnb-145" style="edgeStyle=orthogonalEdgeStyle;rounded=0;orthogonalLoop=1;jettySize=auto;html=1;startArrow=classic;startFill=1;strokeWidth=2;" edge="1" parent="1" source="3i2GIil342nl-OyHMSnb-144" target="3i2GIil342nl-OyHMSnb-138">
          <mxGeometry relative="1" as="geometry" />
        </mxCell>
        <mxCell id="3i2GIil342nl-OyHMSnb-146" style="edgeStyle=orthogonalEdgeStyle;rounded=0;orthogonalLoop=1;jettySize=auto;html=1;startArrow=classic;startFill=1;strokeWidth=2;" edge="1" parent="1" source="3i2GIil342nl-OyHMSnb-144" target="3i2GIil342nl-OyHMSnb-140">
          <mxGeometry relative="1" as="geometry" />
        </mxCell>
        <mxCell id="3i2GIil342nl-OyHMSnb-144" value="&lt;b&gt;&lt;font style=&quot;font-size: 24px;&quot;&gt;IF&lt;/font&gt;&lt;/b&gt;" style="whiteSpace=wrap;html=1;fillColor=#f5f5f5;fontColor=#333333;strokeColor=#666666;" vertex="1" parent="1">
          <mxGeometry x="1186" y="550" width="30" height="130" as="geometry" />
        </mxCell>
        <mxCell id="3i2GIil342nl-OyHMSnb-148" style="edgeStyle=orthogonalEdgeStyle;rounded=0;orthogonalLoop=1;jettySize=auto;html=1;strokeColor=#0000FF;" edge="1" parent="1" source="3i2GIil342nl-OyHMSnb-147" target="3i2GIil342nl-OyHMSnb-44">
          <mxGeometry relative="1" as="geometry" />
        </mxCell>
        <mxCell id="3i2GIil342nl-OyHMSnb-153" style="edgeStyle=orthogonalEdgeStyle;rounded=0;orthogonalLoop=1;jettySize=auto;html=1;entryX=1;entryY=0.5;entryDx=0;entryDy=0;strokeColor=#0000FF;" edge="1" parent="1" source="3i2GIil342nl-OyHMSnb-147" target="3i2GIil342nl-OyHMSnb-138">
          <mxGeometry relative="1" as="geometry">
            <Array as="points">
              <mxPoint x="1415" y="7" />
              <mxPoint x="1415" y="615" />
            </Array>
          </mxGeometry>
        </mxCell>
        <mxCell id="3i2GIil342nl-OyHMSnb-147" value="System Clock&lt;br&gt;&lt;br&gt;Generator" style="rounded=1;whiteSpace=wrap;html=1;fontStyle=1" vertex="1" parent="1">
          <mxGeometry x="1250" y="-23" width="120" height="60" as="geometry" />
        </mxCell>
        <mxCell id="3i2GIil342nl-OyHMSnb-151" style="edgeStyle=orthogonalEdgeStyle;rounded=0;orthogonalLoop=1;jettySize=auto;html=1;jumpStyle=arc;strokeColor=#0000FF;" edge="1" parent="1" source="3i2GIil342nl-OyHMSnb-149" target="3i2GIil342nl-OyHMSnb-33">
          <mxGeometry relative="1" as="geometry" />
        </mxCell>
        <mxCell id="3i2GIil342nl-OyHMSnb-152" style="edgeStyle=orthogonalEdgeStyle;rounded=0;orthogonalLoop=1;jettySize=auto;html=1;strokeColor=#0000FF;" edge="1" parent="1" source="3i2GIil342nl-OyHMSnb-149" target="3i2GIil342nl-OyHMSnb-46">
          <mxGeometry relative="1" as="geometry" />
        </mxCell>
        <mxCell id="3i2GIil342nl-OyHMSnb-149" value="" style="shape=waypoint;sketch=0;size=6;pointerEvents=1;points=[];fillColor=none;resizable=0;rotatable=0;perimeter=centerPerimeter;snapToPoint=1;" vertex="1" parent="1">
          <mxGeometry x="1060" y="-3" width="20" height="20" as="geometry" />
        </mxCell>
        <mxCell id="3i2GIil342nl-OyHMSnb-150" style="edgeStyle=orthogonalEdgeStyle;rounded=0;orthogonalLoop=1;jettySize=auto;html=1;entryX=-0.018;entryY=0.888;entryDx=0;entryDy=0;entryPerimeter=0;strokeColor=#0000FF;" edge="1" parent="1" source="3i2GIil342nl-OyHMSnb-147" target="3i2GIil342nl-OyHMSnb-149">
          <mxGeometry relative="1" as="geometry" />
        </mxCell>
        <mxCell id="3i2GIil342nl-OyHMSnb-156" value="&lt;b&gt;&lt;font style=&quot;font-size: 24px;&quot;&gt;TB&lt;/font&gt;&lt;/b&gt;" style="text;html=1;align=center;verticalAlign=middle;resizable=0;points=[];autosize=1;strokeColor=none;fillColor=none;" vertex="1" parent="1">
          <mxGeometry x="90" y="-43" width="60" height="40" as="geometry" />
        </mxCell>
        <mxCell id="iMnmVTUVPVu9cU5X2Qjm-1" value="DB" style="rounded=1;whiteSpace=wrap;html=1;fillColor=#fff2cc;strokeColor=#d6b656;" vertex="1" parent="1">
          <mxGeometry x="170" y="-10" width="70" height="40" as="geometry" />
        </mxCell>
        <mxCell id="iMnmVTUVPVu9cU5X2Qjm-3" style="edgeStyle=orthogonalEdgeStyle;rounded=0;orthogonalLoop=1;jettySize=auto;html=1;entryX=1;entryY=0.5;entryDx=0;entryDy=0;jumpStyle=arc;" edge="1" parent="1" source="iMnmVTUVPVu9cU5X2Qjm-2" target="3i2GIil342nl-OyHMSnb-87">
          <mxGeometry relative="1" as="geometry">
            <Array as="points">
              <mxPoint x="1176" y="50" />
              <mxPoint x="980" y="50" />
              <mxPoint x="980" y="495" />
            </Array>
          </mxGeometry>
        </mxCell>
        <mxCell id="iMnmVTUVPVu9cU5X2Qjm-6" style="edgeStyle=orthogonalEdgeStyle;rounded=0;orthogonalLoop=1;jettySize=auto;html=1;entryX=1;entryY=0.5;entryDx=0;entryDy=0;" edge="1" parent="1" source="iMnmVTUVPVu9cU5X2Qjm-2" target="3i2GIil342nl-OyHMSnb-71">
          <mxGeometry relative="1" as="geometry" />
        </mxCell>
        <mxCell id="iMnmVTUVPVu9cU5X2Qjm-2" value="" style="shape=waypoint;sketch=0;size=6;pointerEvents=1;points=[];fillColor=none;resizable=0;rotatable=0;perimeter=centerPerimeter;snapToPoint=1;" vertex="1" parent="1">
          <mxGeometry x="1166" y="365" width="20" height="20" as="geometry" />
        </mxCell>
        <mxCell id="3i2GIil342nl-OyHMSnb-33" value="&lt;div&gt;&lt;b&gt;&lt;font style=&quot;font-size: 18px;&quot;&gt;SPI MASTER&lt;/font&gt;&lt;/b&gt;&lt;/div&gt;&lt;div&gt;&lt;b&gt;&lt;font style=&quot;font-size: 18px;&quot;&gt;&lt;br&gt;&lt;/font&gt;&lt;/b&gt;&lt;/div&gt;&lt;div&gt;&lt;b&gt;&lt;font style=&quot;font-size: 18px;&quot;&gt;DUT&lt;/font&gt;&lt;/b&gt;&lt;/div&gt;&lt;b&gt;&lt;font style=&quot;font-size: 18px;&quot;&gt;&lt;br&gt;&lt;/font&gt;&lt;/b&gt;" style="whiteSpace=wrap;html=1;" vertex="1" parent="1">
          <mxGeometry x="1000" y="70" width="141" height="620" as="geometry" />
        </mxCell>
        <mxCell id="iMnmVTUVPVu9cU5X2Qjm-7" value="rst_n" style="text;html=1;align=center;verticalAlign=middle;resizable=0;points=[];autosize=1;strokeColor=none;fillColor=none;" vertex="1" parent="1">
          <mxGeometry x="1203" y="269" width="50" height="30" as="geometry" />
        </mxCell>
        <mxCell id="iMnmVTUVPVu9cU5X2Qjm-8" value="miso" style="text;html=1;align=center;verticalAlign=middle;resizable=0;points=[];autosize=1;strokeColor=none;fillColor=none;" vertex="1" parent="1">
          <mxGeometry x="907" y="466" width="50" height="30" as="geometry" />
        </mxCell>
      </root>
    </mxGraphModel>
  </diagram>
  <diagram id="ELy5jT7NjrNLIbjQNxZi" name="Page-2">
    <mxGraphModel dx="1502" dy="768" grid="1" gridSize="10" guides="1" tooltips="1" connect="1" arrows="1" fold="1" page="1" pageScale="1" pageWidth="850" pageHeight="1100" math="0" shadow="0">
      <root>
        <mxCell id="0" />
        <mxCell id="1" parent="0" />
        <mxCell id="n9IlJwQfkiTQMn5sJXzG-167" value="" style="whiteSpace=wrap;html=1;" vertex="1" parent="1">
          <mxGeometry x="-385" y="75" width="230" height="710" as="geometry" />
        </mxCell>
        <mxCell id="n9IlJwQfkiTQMn5sJXzG-147" value="" style="whiteSpace=wrap;html=1;" vertex="1" parent="1">
          <mxGeometry x="60" y="80" width="370" height="710" as="geometry" />
        </mxCell>
        <mxCell id="n9IlJwQfkiTQMn5sJXzG-9" value="" style="group" vertex="1" connectable="0" parent="1">
          <mxGeometry x="110" y="290" width="260" height="50" as="geometry" />
        </mxCell>
        <mxCell id="n9IlJwQfkiTQMn5sJXzG-1" value="" style="whiteSpace=wrap;html=1;aspect=fixed;" vertex="1" parent="n9IlJwQfkiTQMn5sJXzG-9">
          <mxGeometry width="32.5" height="32.5" as="geometry" />
        </mxCell>
        <mxCell id="n9IlJwQfkiTQMn5sJXzG-2" value="" style="whiteSpace=wrap;html=1;aspect=fixed;" vertex="1" parent="n9IlJwQfkiTQMn5sJXzG-9">
          <mxGeometry x="32.5" width="32.5" height="32.5" as="geometry" />
        </mxCell>
        <mxCell id="n9IlJwQfkiTQMn5sJXzG-3" value="" style="whiteSpace=wrap;html=1;aspect=fixed;" vertex="1" parent="n9IlJwQfkiTQMn5sJXzG-9">
          <mxGeometry x="65" width="32.5" height="32.5" as="geometry" />
        </mxCell>
        <mxCell id="n9IlJwQfkiTQMn5sJXzG-4" value="" style="whiteSpace=wrap;html=1;aspect=fixed;" vertex="1" parent="n9IlJwQfkiTQMn5sJXzG-9">
          <mxGeometry x="97.5" width="32.5" height="32.5" as="geometry" />
        </mxCell>
        <mxCell id="n9IlJwQfkiTQMn5sJXzG-5" value="" style="whiteSpace=wrap;html=1;aspect=fixed;" vertex="1" parent="n9IlJwQfkiTQMn5sJXzG-9">
          <mxGeometry x="130" width="32.5" height="32.5" as="geometry" />
        </mxCell>
        <mxCell id="n9IlJwQfkiTQMn5sJXzG-6" value="" style="whiteSpace=wrap;html=1;aspect=fixed;" vertex="1" parent="n9IlJwQfkiTQMn5sJXzG-9">
          <mxGeometry x="162.5" width="32.5" height="32.5" as="geometry" />
        </mxCell>
        <mxCell id="n9IlJwQfkiTQMn5sJXzG-7" value="" style="whiteSpace=wrap;html=1;aspect=fixed;" vertex="1" parent="n9IlJwQfkiTQMn5sJXzG-9">
          <mxGeometry x="195" width="32.5" height="32.5" as="geometry" />
        </mxCell>
        <mxCell id="n9IlJwQfkiTQMn5sJXzG-8" value="" style="whiteSpace=wrap;html=1;aspect=fixed;" vertex="1" parent="n9IlJwQfkiTQMn5sJXzG-9">
          <mxGeometry x="227.5" width="32.5" height="32.5" as="geometry" />
        </mxCell>
        <mxCell id="n9IlJwQfkiTQMn5sJXzG-12" value="&lt;b&gt;Deserialization: MOSI @(posedge sclk)&lt;br&gt;&lt;/b&gt;" style="text;html=1;align=center;verticalAlign=middle;resizable=0;points=[];autosize=1;strokeColor=none;fillColor=none;" vertex="1" parent="1">
          <mxGeometry x="115" y="320" width="250" height="30" as="geometry" />
        </mxCell>
        <mxCell id="n9IlJwQfkiTQMn5sJXzG-14" style="edgeStyle=orthogonalEdgeStyle;rounded=0;orthogonalLoop=1;jettySize=auto;html=1;" edge="1" parent="1" source="n9IlJwQfkiTQMn5sJXzG-13" target="n9IlJwQfkiTQMn5sJXzG-8">
          <mxGeometry relative="1" as="geometry" />
        </mxCell>
        <mxCell id="n9IlJwQfkiTQMn5sJXzG-13" value="" style="shape=waypoint;sketch=0;size=6;pointerEvents=1;points=[];fillColor=none;resizable=0;rotatable=0;perimeter=centerPerimeter;snapToPoint=1;" vertex="1" parent="1">
          <mxGeometry x="514" y="296" width="20" height="20" as="geometry" />
        </mxCell>
        <mxCell id="n9IlJwQfkiTQMn5sJXzG-40" style="edgeStyle=orthogonalEdgeStyle;rounded=0;orthogonalLoop=1;jettySize=auto;html=1;entryX=0.5;entryY=1;entryDx=0;entryDy=0;" edge="1" parent="1" source="n9IlJwQfkiTQMn5sJXzG-1" target="n9IlJwQfkiTQMn5sJXzG-29">
          <mxGeometry relative="1" as="geometry" />
        </mxCell>
        <mxCell id="n9IlJwQfkiTQMn5sJXzG-41" style="edgeStyle=orthogonalEdgeStyle;rounded=0;orthogonalLoop=1;jettySize=auto;html=1;entryX=0.5;entryY=1;entryDx=0;entryDy=0;" edge="1" parent="1" source="n9IlJwQfkiTQMn5sJXzG-2" target="n9IlJwQfkiTQMn5sJXzG-30">
          <mxGeometry relative="1" as="geometry" />
        </mxCell>
        <mxCell id="n9IlJwQfkiTQMn5sJXzG-42" style="edgeStyle=orthogonalEdgeStyle;rounded=0;orthogonalLoop=1;jettySize=auto;html=1;entryX=0.5;entryY=1;entryDx=0;entryDy=0;" edge="1" parent="1" source="n9IlJwQfkiTQMn5sJXzG-3" target="n9IlJwQfkiTQMn5sJXzG-31">
          <mxGeometry relative="1" as="geometry" />
        </mxCell>
        <mxCell id="n9IlJwQfkiTQMn5sJXzG-43" style="edgeStyle=orthogonalEdgeStyle;rounded=0;orthogonalLoop=1;jettySize=auto;html=1;entryX=0.5;entryY=1;entryDx=0;entryDy=0;" edge="1" parent="1" source="n9IlJwQfkiTQMn5sJXzG-4" target="n9IlJwQfkiTQMn5sJXzG-32">
          <mxGeometry relative="1" as="geometry" />
        </mxCell>
        <mxCell id="n9IlJwQfkiTQMn5sJXzG-45" style="edgeStyle=orthogonalEdgeStyle;rounded=0;orthogonalLoop=1;jettySize=auto;html=1;entryX=0.5;entryY=1;entryDx=0;entryDy=0;" edge="1" parent="1" source="n9IlJwQfkiTQMn5sJXzG-6" target="n9IlJwQfkiTQMn5sJXzG-34">
          <mxGeometry relative="1" as="geometry" />
        </mxCell>
        <mxCell id="n9IlJwQfkiTQMn5sJXzG-47" style="edgeStyle=orthogonalEdgeStyle;rounded=0;orthogonalLoop=1;jettySize=auto;html=1;entryX=0.5;entryY=1;entryDx=0;entryDy=0;" edge="1" parent="1" source="n9IlJwQfkiTQMn5sJXzG-8" target="n9IlJwQfkiTQMn5sJXzG-36">
          <mxGeometry relative="1" as="geometry" />
        </mxCell>
        <mxCell id="n9IlJwQfkiTQMn5sJXzG-48" value="" style="group" vertex="1" connectable="0" parent="1">
          <mxGeometry x="110" y="234.5" width="260" height="32.5" as="geometry" />
        </mxCell>
        <mxCell id="n9IlJwQfkiTQMn5sJXzG-29" value="" style="whiteSpace=wrap;html=1;aspect=fixed;" vertex="1" parent="n9IlJwQfkiTQMn5sJXzG-48">
          <mxGeometry width="32.5" height="32.5" as="geometry" />
        </mxCell>
        <mxCell id="n9IlJwQfkiTQMn5sJXzG-30" value="" style="whiteSpace=wrap;html=1;aspect=fixed;" vertex="1" parent="n9IlJwQfkiTQMn5sJXzG-48">
          <mxGeometry x="32.5" width="32.5" height="32.5" as="geometry" />
        </mxCell>
        <mxCell id="n9IlJwQfkiTQMn5sJXzG-31" value="" style="whiteSpace=wrap;html=1;aspect=fixed;" vertex="1" parent="n9IlJwQfkiTQMn5sJXzG-48">
          <mxGeometry x="65" width="32.5" height="32.5" as="geometry" />
        </mxCell>
        <mxCell id="n9IlJwQfkiTQMn5sJXzG-32" value="" style="whiteSpace=wrap;html=1;aspect=fixed;" vertex="1" parent="n9IlJwQfkiTQMn5sJXzG-48">
          <mxGeometry x="97.5" width="32.5" height="32.5" as="geometry" />
        </mxCell>
        <mxCell id="n9IlJwQfkiTQMn5sJXzG-33" value="" style="whiteSpace=wrap;html=1;aspect=fixed;" vertex="1" parent="n9IlJwQfkiTQMn5sJXzG-48">
          <mxGeometry x="130" width="32.5" height="32.5" as="geometry" />
        </mxCell>
        <mxCell id="n9IlJwQfkiTQMn5sJXzG-34" value="" style="whiteSpace=wrap;html=1;aspect=fixed;" vertex="1" parent="n9IlJwQfkiTQMn5sJXzG-48">
          <mxGeometry x="162.5" width="32.5" height="32.5" as="geometry" />
        </mxCell>
        <mxCell id="n9IlJwQfkiTQMn5sJXzG-35" value="" style="whiteSpace=wrap;html=1;aspect=fixed;" vertex="1" parent="n9IlJwQfkiTQMn5sJXzG-48">
          <mxGeometry x="195" width="32.5" height="32.5" as="geometry" />
        </mxCell>
        <mxCell id="n9IlJwQfkiTQMn5sJXzG-36" value="" style="whiteSpace=wrap;html=1;aspect=fixed;" vertex="1" parent="n9IlJwQfkiTQMn5sJXzG-48">
          <mxGeometry x="227.5" width="32.5" height="32.5" as="geometry" />
        </mxCell>
        <mxCell id="n9IlJwQfkiTQMn5sJXzG-49" style="edgeStyle=orthogonalEdgeStyle;rounded=0;orthogonalLoop=1;jettySize=auto;html=1;exitX=0.5;exitY=0;exitDx=0;exitDy=0;entryX=0.5;entryY=1;entryDx=0;entryDy=0;" edge="1" parent="1" source="n9IlJwQfkiTQMn5sJXzG-7" target="n9IlJwQfkiTQMn5sJXzG-35">
          <mxGeometry relative="1" as="geometry" />
        </mxCell>
        <mxCell id="n9IlJwQfkiTQMn5sJXzG-51" style="edgeStyle=orthogonalEdgeStyle;rounded=0;orthogonalLoop=1;jettySize=auto;html=1;entryX=0.5;entryY=1;entryDx=0;entryDy=0;" edge="1" parent="1" source="n9IlJwQfkiTQMn5sJXzG-5" target="n9IlJwQfkiTQMn5sJXzG-33">
          <mxGeometry relative="1" as="geometry" />
        </mxCell>
        <mxCell id="n9IlJwQfkiTQMn5sJXzG-11" value="" style="rounded=1;whiteSpace=wrap;html=1;fillColor=#dae8fc;strokeColor=#6c8ebf;" vertex="1" parent="1">
          <mxGeometry x="90" y="227" width="300" height="40" as="geometry" />
        </mxCell>
        <mxCell id="n9IlJwQfkiTQMn5sJXzG-52" value="tr_dut.mosi_rdata_q" style="text;html=1;align=center;verticalAlign=middle;resizable=0;points=[];autosize=1;strokeColor=none;fillColor=none;" vertex="1" parent="1">
          <mxGeometry x="175" y="234.5" width="130" height="30" as="geometry" />
        </mxCell>
        <mxCell id="n9IlJwQfkiTQMn5sJXzG-53" value="" style="group" vertex="1" connectable="0" parent="1">
          <mxGeometry x="110" y="433" width="260" height="50" as="geometry" />
        </mxCell>
        <mxCell id="n9IlJwQfkiTQMn5sJXzG-54" value="" style="whiteSpace=wrap;html=1;aspect=fixed;" vertex="1" parent="n9IlJwQfkiTQMn5sJXzG-53">
          <mxGeometry width="32.5" height="32.5" as="geometry" />
        </mxCell>
        <mxCell id="n9IlJwQfkiTQMn5sJXzG-55" value="" style="whiteSpace=wrap;html=1;aspect=fixed;" vertex="1" parent="n9IlJwQfkiTQMn5sJXzG-53">
          <mxGeometry x="32.5" width="32.5" height="32.5" as="geometry" />
        </mxCell>
        <mxCell id="n9IlJwQfkiTQMn5sJXzG-56" value="" style="whiteSpace=wrap;html=1;aspect=fixed;" vertex="1" parent="n9IlJwQfkiTQMn5sJXzG-53">
          <mxGeometry x="65" width="32.5" height="32.5" as="geometry" />
        </mxCell>
        <mxCell id="n9IlJwQfkiTQMn5sJXzG-57" value="" style="whiteSpace=wrap;html=1;aspect=fixed;" vertex="1" parent="n9IlJwQfkiTQMn5sJXzG-53">
          <mxGeometry x="97.5" width="32.5" height="32.5" as="geometry" />
        </mxCell>
        <mxCell id="n9IlJwQfkiTQMn5sJXzG-58" value="" style="whiteSpace=wrap;html=1;aspect=fixed;" vertex="1" parent="n9IlJwQfkiTQMn5sJXzG-53">
          <mxGeometry x="130" width="32.5" height="32.5" as="geometry" />
        </mxCell>
        <mxCell id="n9IlJwQfkiTQMn5sJXzG-59" value="" style="whiteSpace=wrap;html=1;aspect=fixed;" vertex="1" parent="n9IlJwQfkiTQMn5sJXzG-53">
          <mxGeometry x="162.5" width="32.5" height="32.5" as="geometry" />
        </mxCell>
        <mxCell id="n9IlJwQfkiTQMn5sJXzG-60" value="" style="whiteSpace=wrap;html=1;aspect=fixed;" vertex="1" parent="n9IlJwQfkiTQMn5sJXzG-53">
          <mxGeometry x="195" width="32.5" height="32.5" as="geometry" />
        </mxCell>
        <mxCell id="n9IlJwQfkiTQMn5sJXzG-61" value="" style="whiteSpace=wrap;html=1;aspect=fixed;" vertex="1" parent="n9IlJwQfkiTQMn5sJXzG-53">
          <mxGeometry x="227.5" width="32.5" height="32.5" as="geometry" />
        </mxCell>
        <mxCell id="n9IlJwQfkiTQMn5sJXzG-62" value="&lt;b&gt;Deserialization: MISO @(posedge sclk)&lt;br&gt;&lt;/b&gt;" style="text;html=1;align=center;verticalAlign=middle;resizable=0;points=[];autosize=1;strokeColor=none;fillColor=none;" vertex="1" parent="1">
          <mxGeometry x="115" y="463" width="250" height="30" as="geometry" />
        </mxCell>
        <mxCell id="n9IlJwQfkiTQMn5sJXzG-63" style="edgeStyle=orthogonalEdgeStyle;rounded=0;orthogonalLoop=1;jettySize=auto;html=1;" edge="1" parent="1" source="n9IlJwQfkiTQMn5sJXzG-64" target="n9IlJwQfkiTQMn5sJXzG-61">
          <mxGeometry relative="1" as="geometry" />
        </mxCell>
        <mxCell id="n9IlJwQfkiTQMn5sJXzG-64" value="" style="shape=waypoint;sketch=0;size=6;pointerEvents=1;points=[];fillColor=none;resizable=0;rotatable=0;perimeter=centerPerimeter;snapToPoint=1;" vertex="1" parent="1">
          <mxGeometry x="514" y="439" width="20" height="20" as="geometry" />
        </mxCell>
        <mxCell id="n9IlJwQfkiTQMn5sJXzG-65" style="edgeStyle=orthogonalEdgeStyle;rounded=0;orthogonalLoop=1;jettySize=auto;html=1;entryX=0.5;entryY=1;entryDx=0;entryDy=0;" edge="1" parent="1" source="n9IlJwQfkiTQMn5sJXzG-54" target="n9IlJwQfkiTQMn5sJXzG-72">
          <mxGeometry relative="1" as="geometry" />
        </mxCell>
        <mxCell id="n9IlJwQfkiTQMn5sJXzG-66" style="edgeStyle=orthogonalEdgeStyle;rounded=0;orthogonalLoop=1;jettySize=auto;html=1;entryX=0.5;entryY=1;entryDx=0;entryDy=0;" edge="1" parent="1" source="n9IlJwQfkiTQMn5sJXzG-55" target="n9IlJwQfkiTQMn5sJXzG-73">
          <mxGeometry relative="1" as="geometry" />
        </mxCell>
        <mxCell id="n9IlJwQfkiTQMn5sJXzG-67" style="edgeStyle=orthogonalEdgeStyle;rounded=0;orthogonalLoop=1;jettySize=auto;html=1;entryX=0.5;entryY=1;entryDx=0;entryDy=0;" edge="1" parent="1" source="n9IlJwQfkiTQMn5sJXzG-56" target="n9IlJwQfkiTQMn5sJXzG-74">
          <mxGeometry relative="1" as="geometry" />
        </mxCell>
        <mxCell id="n9IlJwQfkiTQMn5sJXzG-68" style="edgeStyle=orthogonalEdgeStyle;rounded=0;orthogonalLoop=1;jettySize=auto;html=1;entryX=0.5;entryY=1;entryDx=0;entryDy=0;" edge="1" parent="1" source="n9IlJwQfkiTQMn5sJXzG-57" target="n9IlJwQfkiTQMn5sJXzG-75">
          <mxGeometry relative="1" as="geometry" />
        </mxCell>
        <mxCell id="n9IlJwQfkiTQMn5sJXzG-69" style="edgeStyle=orthogonalEdgeStyle;rounded=0;orthogonalLoop=1;jettySize=auto;html=1;entryX=0.5;entryY=1;entryDx=0;entryDy=0;" edge="1" parent="1" source="n9IlJwQfkiTQMn5sJXzG-59" target="n9IlJwQfkiTQMn5sJXzG-77">
          <mxGeometry relative="1" as="geometry" />
        </mxCell>
        <mxCell id="n9IlJwQfkiTQMn5sJXzG-70" style="edgeStyle=orthogonalEdgeStyle;rounded=0;orthogonalLoop=1;jettySize=auto;html=1;entryX=0.5;entryY=1;entryDx=0;entryDy=0;" edge="1" parent="1" source="n9IlJwQfkiTQMn5sJXzG-61" target="n9IlJwQfkiTQMn5sJXzG-79">
          <mxGeometry relative="1" as="geometry" />
        </mxCell>
        <mxCell id="n9IlJwQfkiTQMn5sJXzG-71" value="" style="group" vertex="1" connectable="0" parent="1">
          <mxGeometry x="110" y="377.5" width="260" height="32.5" as="geometry" />
        </mxCell>
        <mxCell id="n9IlJwQfkiTQMn5sJXzG-72" value="" style="whiteSpace=wrap;html=1;aspect=fixed;" vertex="1" parent="n9IlJwQfkiTQMn5sJXzG-71">
          <mxGeometry width="32.5" height="32.5" as="geometry" />
        </mxCell>
        <mxCell id="n9IlJwQfkiTQMn5sJXzG-73" value="" style="whiteSpace=wrap;html=1;aspect=fixed;" vertex="1" parent="n9IlJwQfkiTQMn5sJXzG-71">
          <mxGeometry x="32.5" width="32.5" height="32.5" as="geometry" />
        </mxCell>
        <mxCell id="n9IlJwQfkiTQMn5sJXzG-74" value="" style="whiteSpace=wrap;html=1;aspect=fixed;" vertex="1" parent="n9IlJwQfkiTQMn5sJXzG-71">
          <mxGeometry x="65" width="32.5" height="32.5" as="geometry" />
        </mxCell>
        <mxCell id="n9IlJwQfkiTQMn5sJXzG-75" value="" style="whiteSpace=wrap;html=1;aspect=fixed;" vertex="1" parent="n9IlJwQfkiTQMn5sJXzG-71">
          <mxGeometry x="97.5" width="32.5" height="32.5" as="geometry" />
        </mxCell>
        <mxCell id="n9IlJwQfkiTQMn5sJXzG-76" value="" style="whiteSpace=wrap;html=1;aspect=fixed;" vertex="1" parent="n9IlJwQfkiTQMn5sJXzG-71">
          <mxGeometry x="130" width="32.5" height="32.5" as="geometry" />
        </mxCell>
        <mxCell id="n9IlJwQfkiTQMn5sJXzG-77" value="" style="whiteSpace=wrap;html=1;aspect=fixed;" vertex="1" parent="n9IlJwQfkiTQMn5sJXzG-71">
          <mxGeometry x="162.5" width="32.5" height="32.5" as="geometry" />
        </mxCell>
        <mxCell id="n9IlJwQfkiTQMn5sJXzG-78" value="" style="whiteSpace=wrap;html=1;aspect=fixed;" vertex="1" parent="n9IlJwQfkiTQMn5sJXzG-71">
          <mxGeometry x="195" width="32.5" height="32.5" as="geometry" />
        </mxCell>
        <mxCell id="n9IlJwQfkiTQMn5sJXzG-79" value="" style="whiteSpace=wrap;html=1;aspect=fixed;" vertex="1" parent="n9IlJwQfkiTQMn5sJXzG-71">
          <mxGeometry x="227.5" width="32.5" height="32.5" as="geometry" />
        </mxCell>
        <mxCell id="n9IlJwQfkiTQMn5sJXzG-80" style="edgeStyle=orthogonalEdgeStyle;rounded=0;orthogonalLoop=1;jettySize=auto;html=1;exitX=0.5;exitY=0;exitDx=0;exitDy=0;entryX=0.5;entryY=1;entryDx=0;entryDy=0;" edge="1" parent="1" source="n9IlJwQfkiTQMn5sJXzG-60" target="n9IlJwQfkiTQMn5sJXzG-78">
          <mxGeometry relative="1" as="geometry" />
        </mxCell>
        <mxCell id="n9IlJwQfkiTQMn5sJXzG-81" style="edgeStyle=orthogonalEdgeStyle;rounded=0;orthogonalLoop=1;jettySize=auto;html=1;entryX=0.5;entryY=1;entryDx=0;entryDy=0;" edge="1" parent="1" source="n9IlJwQfkiTQMn5sJXzG-58" target="n9IlJwQfkiTQMn5sJXzG-76">
          <mxGeometry relative="1" as="geometry" />
        </mxCell>
        <mxCell id="n9IlJwQfkiTQMn5sJXzG-82" value="" style="rounded=1;whiteSpace=wrap;html=1;fillColor=#dae8fc;strokeColor=#6c8ebf;" vertex="1" parent="1">
          <mxGeometry x="90" y="370" width="300" height="40" as="geometry" />
        </mxCell>
        <mxCell id="n9IlJwQfkiTQMn5sJXzG-83" value="tr_dut.miso_rdata_q" style="text;html=1;align=center;verticalAlign=middle;resizable=0;points=[];autosize=1;strokeColor=none;fillColor=none;" vertex="1" parent="1">
          <mxGeometry x="175" y="377.5" width="130" height="30" as="geometry" />
        </mxCell>
        <mxCell id="n9IlJwQfkiTQMn5sJXzG-84" value="" style="group" vertex="1" connectable="0" parent="1">
          <mxGeometry x="110" y="573" width="260" height="50" as="geometry" />
        </mxCell>
        <mxCell id="n9IlJwQfkiTQMn5sJXzG-85" value="" style="whiteSpace=wrap;html=1;aspect=fixed;" vertex="1" parent="n9IlJwQfkiTQMn5sJXzG-84">
          <mxGeometry width="32.5" height="32.5" as="geometry" />
        </mxCell>
        <mxCell id="n9IlJwQfkiTQMn5sJXzG-86" value="" style="whiteSpace=wrap;html=1;aspect=fixed;" vertex="1" parent="n9IlJwQfkiTQMn5sJXzG-84">
          <mxGeometry x="32.5" width="32.5" height="32.5" as="geometry" />
        </mxCell>
        <mxCell id="n9IlJwQfkiTQMn5sJXzG-87" value="" style="whiteSpace=wrap;html=1;aspect=fixed;" vertex="1" parent="n9IlJwQfkiTQMn5sJXzG-84">
          <mxGeometry x="65" width="32.5" height="32.5" as="geometry" />
        </mxCell>
        <mxCell id="n9IlJwQfkiTQMn5sJXzG-88" value="" style="whiteSpace=wrap;html=1;aspect=fixed;" vertex="1" parent="n9IlJwQfkiTQMn5sJXzG-84">
          <mxGeometry x="97.5" width="32.5" height="32.5" as="geometry" />
        </mxCell>
        <mxCell id="n9IlJwQfkiTQMn5sJXzG-89" value="" style="whiteSpace=wrap;html=1;aspect=fixed;" vertex="1" parent="n9IlJwQfkiTQMn5sJXzG-84">
          <mxGeometry x="130" width="32.5" height="32.5" as="geometry" />
        </mxCell>
        <mxCell id="n9IlJwQfkiTQMn5sJXzG-90" value="" style="whiteSpace=wrap;html=1;aspect=fixed;" vertex="1" parent="n9IlJwQfkiTQMn5sJXzG-84">
          <mxGeometry x="162.5" width="32.5" height="32.5" as="geometry" />
        </mxCell>
        <mxCell id="n9IlJwQfkiTQMn5sJXzG-91" value="" style="whiteSpace=wrap;html=1;aspect=fixed;" vertex="1" parent="n9IlJwQfkiTQMn5sJXzG-84">
          <mxGeometry x="195" width="32.5" height="32.5" as="geometry" />
        </mxCell>
        <mxCell id="n9IlJwQfkiTQMn5sJXzG-92" value="" style="whiteSpace=wrap;html=1;aspect=fixed;" vertex="1" parent="n9IlJwQfkiTQMn5sJXzG-84">
          <mxGeometry x="227.5" width="32.5" height="32.5" as="geometry" />
        </mxCell>
        <mxCell id="n9IlJwQfkiTQMn5sJXzG-93" value="&lt;b&gt;Deserialization: MOSI @(negedge sclk)&lt;br&gt;&lt;/b&gt;" style="text;html=1;align=center;verticalAlign=middle;resizable=0;points=[];autosize=1;strokeColor=none;fillColor=none;" vertex="1" parent="1">
          <mxGeometry x="115" y="603" width="250" height="30" as="geometry" />
        </mxCell>
        <mxCell id="n9IlJwQfkiTQMn5sJXzG-94" style="edgeStyle=orthogonalEdgeStyle;rounded=0;orthogonalLoop=1;jettySize=auto;html=1;" edge="1" parent="1" source="n9IlJwQfkiTQMn5sJXzG-95" target="n9IlJwQfkiTQMn5sJXzG-92">
          <mxGeometry relative="1" as="geometry" />
        </mxCell>
        <mxCell id="n9IlJwQfkiTQMn5sJXzG-95" value="" style="shape=waypoint;sketch=0;size=6;pointerEvents=1;points=[];fillColor=none;resizable=0;rotatable=0;perimeter=centerPerimeter;snapToPoint=1;" vertex="1" parent="1">
          <mxGeometry x="514" y="579" width="20" height="20" as="geometry" />
        </mxCell>
        <mxCell id="n9IlJwQfkiTQMn5sJXzG-96" style="edgeStyle=orthogonalEdgeStyle;rounded=0;orthogonalLoop=1;jettySize=auto;html=1;entryX=0.5;entryY=1;entryDx=0;entryDy=0;" edge="1" parent="1" source="n9IlJwQfkiTQMn5sJXzG-85" target="n9IlJwQfkiTQMn5sJXzG-103">
          <mxGeometry relative="1" as="geometry" />
        </mxCell>
        <mxCell id="n9IlJwQfkiTQMn5sJXzG-97" style="edgeStyle=orthogonalEdgeStyle;rounded=0;orthogonalLoop=1;jettySize=auto;html=1;entryX=0.5;entryY=1;entryDx=0;entryDy=0;" edge="1" parent="1" source="n9IlJwQfkiTQMn5sJXzG-86" target="n9IlJwQfkiTQMn5sJXzG-104">
          <mxGeometry relative="1" as="geometry" />
        </mxCell>
        <mxCell id="n9IlJwQfkiTQMn5sJXzG-98" style="edgeStyle=orthogonalEdgeStyle;rounded=0;orthogonalLoop=1;jettySize=auto;html=1;entryX=0.5;entryY=1;entryDx=0;entryDy=0;" edge="1" parent="1" source="n9IlJwQfkiTQMn5sJXzG-87" target="n9IlJwQfkiTQMn5sJXzG-105">
          <mxGeometry relative="1" as="geometry" />
        </mxCell>
        <mxCell id="n9IlJwQfkiTQMn5sJXzG-99" style="edgeStyle=orthogonalEdgeStyle;rounded=0;orthogonalLoop=1;jettySize=auto;html=1;entryX=0.5;entryY=1;entryDx=0;entryDy=0;" edge="1" parent="1" source="n9IlJwQfkiTQMn5sJXzG-88" target="n9IlJwQfkiTQMn5sJXzG-106">
          <mxGeometry relative="1" as="geometry" />
        </mxCell>
        <mxCell id="n9IlJwQfkiTQMn5sJXzG-100" style="edgeStyle=orthogonalEdgeStyle;rounded=0;orthogonalLoop=1;jettySize=auto;html=1;entryX=0.5;entryY=1;entryDx=0;entryDy=0;" edge="1" parent="1" source="n9IlJwQfkiTQMn5sJXzG-90" target="n9IlJwQfkiTQMn5sJXzG-108">
          <mxGeometry relative="1" as="geometry" />
        </mxCell>
        <mxCell id="n9IlJwQfkiTQMn5sJXzG-101" style="edgeStyle=orthogonalEdgeStyle;rounded=0;orthogonalLoop=1;jettySize=auto;html=1;entryX=0.5;entryY=1;entryDx=0;entryDy=0;" edge="1" parent="1" source="n9IlJwQfkiTQMn5sJXzG-92" target="n9IlJwQfkiTQMn5sJXzG-110">
          <mxGeometry relative="1" as="geometry" />
        </mxCell>
        <mxCell id="n9IlJwQfkiTQMn5sJXzG-102" value="" style="group" vertex="1" connectable="0" parent="1">
          <mxGeometry x="110" y="517.5" width="260" height="32.5" as="geometry" />
        </mxCell>
        <mxCell id="n9IlJwQfkiTQMn5sJXzG-103" value="" style="whiteSpace=wrap;html=1;aspect=fixed;" vertex="1" parent="n9IlJwQfkiTQMn5sJXzG-102">
          <mxGeometry width="32.5" height="32.5" as="geometry" />
        </mxCell>
        <mxCell id="n9IlJwQfkiTQMn5sJXzG-104" value="" style="whiteSpace=wrap;html=1;aspect=fixed;" vertex="1" parent="n9IlJwQfkiTQMn5sJXzG-102">
          <mxGeometry x="32.5" width="32.5" height="32.5" as="geometry" />
        </mxCell>
        <mxCell id="n9IlJwQfkiTQMn5sJXzG-105" value="" style="whiteSpace=wrap;html=1;aspect=fixed;" vertex="1" parent="n9IlJwQfkiTQMn5sJXzG-102">
          <mxGeometry x="65" width="32.5" height="32.5" as="geometry" />
        </mxCell>
        <mxCell id="n9IlJwQfkiTQMn5sJXzG-106" value="" style="whiteSpace=wrap;html=1;aspect=fixed;" vertex="1" parent="n9IlJwQfkiTQMn5sJXzG-102">
          <mxGeometry x="97.5" width="32.5" height="32.5" as="geometry" />
        </mxCell>
        <mxCell id="n9IlJwQfkiTQMn5sJXzG-107" value="" style="whiteSpace=wrap;html=1;aspect=fixed;" vertex="1" parent="n9IlJwQfkiTQMn5sJXzG-102">
          <mxGeometry x="130" width="32.5" height="32.5" as="geometry" />
        </mxCell>
        <mxCell id="n9IlJwQfkiTQMn5sJXzG-108" value="" style="whiteSpace=wrap;html=1;aspect=fixed;" vertex="1" parent="n9IlJwQfkiTQMn5sJXzG-102">
          <mxGeometry x="162.5" width="32.5" height="32.5" as="geometry" />
        </mxCell>
        <mxCell id="n9IlJwQfkiTQMn5sJXzG-109" value="" style="whiteSpace=wrap;html=1;aspect=fixed;" vertex="1" parent="n9IlJwQfkiTQMn5sJXzG-102">
          <mxGeometry x="195" width="32.5" height="32.5" as="geometry" />
        </mxCell>
        <mxCell id="n9IlJwQfkiTQMn5sJXzG-110" value="" style="whiteSpace=wrap;html=1;aspect=fixed;" vertex="1" parent="n9IlJwQfkiTQMn5sJXzG-102">
          <mxGeometry x="227.5" width="32.5" height="32.5" as="geometry" />
        </mxCell>
        <mxCell id="n9IlJwQfkiTQMn5sJXzG-111" style="edgeStyle=orthogonalEdgeStyle;rounded=0;orthogonalLoop=1;jettySize=auto;html=1;exitX=0.5;exitY=0;exitDx=0;exitDy=0;entryX=0.5;entryY=1;entryDx=0;entryDy=0;" edge="1" parent="1" source="n9IlJwQfkiTQMn5sJXzG-91" target="n9IlJwQfkiTQMn5sJXzG-109">
          <mxGeometry relative="1" as="geometry" />
        </mxCell>
        <mxCell id="n9IlJwQfkiTQMn5sJXzG-112" style="edgeStyle=orthogonalEdgeStyle;rounded=0;orthogonalLoop=1;jettySize=auto;html=1;entryX=0.5;entryY=1;entryDx=0;entryDy=0;" edge="1" parent="1" source="n9IlJwQfkiTQMn5sJXzG-89" target="n9IlJwQfkiTQMn5sJXzG-107">
          <mxGeometry relative="1" as="geometry" />
        </mxCell>
        <mxCell id="n9IlJwQfkiTQMn5sJXzG-113" value="" style="rounded=1;whiteSpace=wrap;html=1;fillColor=#f5f5f5;strokeColor=#666666;fontColor=#333333;" vertex="1" parent="1">
          <mxGeometry x="90" y="510" width="300" height="40" as="geometry" />
        </mxCell>
        <mxCell id="n9IlJwQfkiTQMn5sJXzG-114" value="tr_dut.mosi_fdata_q" style="text;html=1;align=center;verticalAlign=middle;resizable=0;points=[];autosize=1;strokeColor=none;fillColor=none;" vertex="1" parent="1">
          <mxGeometry x="175" y="517.5" width="130" height="30" as="geometry" />
        </mxCell>
        <mxCell id="n9IlJwQfkiTQMn5sJXzG-115" value="" style="group" vertex="1" connectable="0" parent="1">
          <mxGeometry x="110" y="713" width="260" height="50" as="geometry" />
        </mxCell>
        <mxCell id="n9IlJwQfkiTQMn5sJXzG-116" value="" style="whiteSpace=wrap;html=1;aspect=fixed;" vertex="1" parent="n9IlJwQfkiTQMn5sJXzG-115">
          <mxGeometry width="32.5" height="32.5" as="geometry" />
        </mxCell>
        <mxCell id="n9IlJwQfkiTQMn5sJXzG-117" value="" style="whiteSpace=wrap;html=1;aspect=fixed;" vertex="1" parent="n9IlJwQfkiTQMn5sJXzG-115">
          <mxGeometry x="32.5" width="32.5" height="32.5" as="geometry" />
        </mxCell>
        <mxCell id="n9IlJwQfkiTQMn5sJXzG-118" value="" style="whiteSpace=wrap;html=1;aspect=fixed;" vertex="1" parent="n9IlJwQfkiTQMn5sJXzG-115">
          <mxGeometry x="65" width="32.5" height="32.5" as="geometry" />
        </mxCell>
        <mxCell id="n9IlJwQfkiTQMn5sJXzG-119" value="" style="whiteSpace=wrap;html=1;aspect=fixed;" vertex="1" parent="n9IlJwQfkiTQMn5sJXzG-115">
          <mxGeometry x="97.5" width="32.5" height="32.5" as="geometry" />
        </mxCell>
        <mxCell id="n9IlJwQfkiTQMn5sJXzG-120" value="" style="whiteSpace=wrap;html=1;aspect=fixed;" vertex="1" parent="n9IlJwQfkiTQMn5sJXzG-115">
          <mxGeometry x="130" width="32.5" height="32.5" as="geometry" />
        </mxCell>
        <mxCell id="n9IlJwQfkiTQMn5sJXzG-121" value="" style="whiteSpace=wrap;html=1;aspect=fixed;" vertex="1" parent="n9IlJwQfkiTQMn5sJXzG-115">
          <mxGeometry x="162.5" width="32.5" height="32.5" as="geometry" />
        </mxCell>
        <mxCell id="n9IlJwQfkiTQMn5sJXzG-122" value="" style="whiteSpace=wrap;html=1;aspect=fixed;" vertex="1" parent="n9IlJwQfkiTQMn5sJXzG-115">
          <mxGeometry x="195" width="32.5" height="32.5" as="geometry" />
        </mxCell>
        <mxCell id="n9IlJwQfkiTQMn5sJXzG-123" value="" style="whiteSpace=wrap;html=1;aspect=fixed;" vertex="1" parent="n9IlJwQfkiTQMn5sJXzG-115">
          <mxGeometry x="227.5" width="32.5" height="32.5" as="geometry" />
        </mxCell>
        <mxCell id="n9IlJwQfkiTQMn5sJXzG-124" value="&lt;b&gt;Deserialization: MISO @(negedge sclk)&lt;br&gt;&lt;/b&gt;" style="text;html=1;align=center;verticalAlign=middle;resizable=0;points=[];autosize=1;strokeColor=none;fillColor=none;" vertex="1" parent="1">
          <mxGeometry x="115" y="743" width="250" height="30" as="geometry" />
        </mxCell>
        <mxCell id="n9IlJwQfkiTQMn5sJXzG-125" style="edgeStyle=orthogonalEdgeStyle;rounded=0;orthogonalLoop=1;jettySize=auto;html=1;" edge="1" parent="1" source="n9IlJwQfkiTQMn5sJXzG-126" target="n9IlJwQfkiTQMn5sJXzG-123">
          <mxGeometry relative="1" as="geometry" />
        </mxCell>
        <mxCell id="n9IlJwQfkiTQMn5sJXzG-126" value="" style="shape=waypoint;sketch=0;size=6;pointerEvents=1;points=[];fillColor=none;resizable=0;rotatable=0;perimeter=centerPerimeter;snapToPoint=1;" vertex="1" parent="1">
          <mxGeometry x="514" y="719" width="20" height="20" as="geometry" />
        </mxCell>
        <mxCell id="n9IlJwQfkiTQMn5sJXzG-127" style="edgeStyle=orthogonalEdgeStyle;rounded=0;orthogonalLoop=1;jettySize=auto;html=1;entryX=0.5;entryY=1;entryDx=0;entryDy=0;" edge="1" parent="1" source="n9IlJwQfkiTQMn5sJXzG-116" target="n9IlJwQfkiTQMn5sJXzG-134">
          <mxGeometry relative="1" as="geometry" />
        </mxCell>
        <mxCell id="n9IlJwQfkiTQMn5sJXzG-128" style="edgeStyle=orthogonalEdgeStyle;rounded=0;orthogonalLoop=1;jettySize=auto;html=1;entryX=0.5;entryY=1;entryDx=0;entryDy=0;" edge="1" parent="1" source="n9IlJwQfkiTQMn5sJXzG-117" target="n9IlJwQfkiTQMn5sJXzG-135">
          <mxGeometry relative="1" as="geometry" />
        </mxCell>
        <mxCell id="n9IlJwQfkiTQMn5sJXzG-129" style="edgeStyle=orthogonalEdgeStyle;rounded=0;orthogonalLoop=1;jettySize=auto;html=1;entryX=0.5;entryY=1;entryDx=0;entryDy=0;" edge="1" parent="1" source="n9IlJwQfkiTQMn5sJXzG-118" target="n9IlJwQfkiTQMn5sJXzG-136">
          <mxGeometry relative="1" as="geometry" />
        </mxCell>
        <mxCell id="n9IlJwQfkiTQMn5sJXzG-130" style="edgeStyle=orthogonalEdgeStyle;rounded=0;orthogonalLoop=1;jettySize=auto;html=1;entryX=0.5;entryY=1;entryDx=0;entryDy=0;" edge="1" parent="1" source="n9IlJwQfkiTQMn5sJXzG-119" target="n9IlJwQfkiTQMn5sJXzG-137">
          <mxGeometry relative="1" as="geometry" />
        </mxCell>
        <mxCell id="n9IlJwQfkiTQMn5sJXzG-131" style="edgeStyle=orthogonalEdgeStyle;rounded=0;orthogonalLoop=1;jettySize=auto;html=1;entryX=0.5;entryY=1;entryDx=0;entryDy=0;" edge="1" parent="1" source="n9IlJwQfkiTQMn5sJXzG-121" target="n9IlJwQfkiTQMn5sJXzG-139">
          <mxGeometry relative="1" as="geometry" />
        </mxCell>
        <mxCell id="n9IlJwQfkiTQMn5sJXzG-132" style="edgeStyle=orthogonalEdgeStyle;rounded=0;orthogonalLoop=1;jettySize=auto;html=1;entryX=0.5;entryY=1;entryDx=0;entryDy=0;" edge="1" parent="1" source="n9IlJwQfkiTQMn5sJXzG-123" target="n9IlJwQfkiTQMn5sJXzG-141">
          <mxGeometry relative="1" as="geometry" />
        </mxCell>
        <mxCell id="n9IlJwQfkiTQMn5sJXzG-133" value="" style="group" vertex="1" connectable="0" parent="1">
          <mxGeometry x="110" y="657.5" width="260" height="32.5" as="geometry" />
        </mxCell>
        <mxCell id="n9IlJwQfkiTQMn5sJXzG-134" value="" style="whiteSpace=wrap;html=1;aspect=fixed;" vertex="1" parent="n9IlJwQfkiTQMn5sJXzG-133">
          <mxGeometry width="32.5" height="32.5" as="geometry" />
        </mxCell>
        <mxCell id="n9IlJwQfkiTQMn5sJXzG-135" value="" style="whiteSpace=wrap;html=1;aspect=fixed;" vertex="1" parent="n9IlJwQfkiTQMn5sJXzG-133">
          <mxGeometry x="32.5" width="32.5" height="32.5" as="geometry" />
        </mxCell>
        <mxCell id="n9IlJwQfkiTQMn5sJXzG-136" value="" style="whiteSpace=wrap;html=1;aspect=fixed;" vertex="1" parent="n9IlJwQfkiTQMn5sJXzG-133">
          <mxGeometry x="65" width="32.5" height="32.5" as="geometry" />
        </mxCell>
        <mxCell id="n9IlJwQfkiTQMn5sJXzG-137" value="" style="whiteSpace=wrap;html=1;aspect=fixed;" vertex="1" parent="n9IlJwQfkiTQMn5sJXzG-133">
          <mxGeometry x="97.5" width="32.5" height="32.5" as="geometry" />
        </mxCell>
        <mxCell id="n9IlJwQfkiTQMn5sJXzG-138" value="" style="whiteSpace=wrap;html=1;aspect=fixed;" vertex="1" parent="n9IlJwQfkiTQMn5sJXzG-133">
          <mxGeometry x="130" width="32.5" height="32.5" as="geometry" />
        </mxCell>
        <mxCell id="n9IlJwQfkiTQMn5sJXzG-139" value="" style="whiteSpace=wrap;html=1;aspect=fixed;" vertex="1" parent="n9IlJwQfkiTQMn5sJXzG-133">
          <mxGeometry x="162.5" width="32.5" height="32.5" as="geometry" />
        </mxCell>
        <mxCell id="n9IlJwQfkiTQMn5sJXzG-140" value="" style="whiteSpace=wrap;html=1;aspect=fixed;" vertex="1" parent="n9IlJwQfkiTQMn5sJXzG-133">
          <mxGeometry x="195" width="32.5" height="32.5" as="geometry" />
        </mxCell>
        <mxCell id="n9IlJwQfkiTQMn5sJXzG-141" value="" style="whiteSpace=wrap;html=1;aspect=fixed;" vertex="1" parent="n9IlJwQfkiTQMn5sJXzG-133">
          <mxGeometry x="227.5" width="32.5" height="32.5" as="geometry" />
        </mxCell>
        <mxCell id="n9IlJwQfkiTQMn5sJXzG-142" style="edgeStyle=orthogonalEdgeStyle;rounded=0;orthogonalLoop=1;jettySize=auto;html=1;exitX=0.5;exitY=0;exitDx=0;exitDy=0;entryX=0.5;entryY=1;entryDx=0;entryDy=0;" edge="1" parent="1" source="n9IlJwQfkiTQMn5sJXzG-122" target="n9IlJwQfkiTQMn5sJXzG-140">
          <mxGeometry relative="1" as="geometry" />
        </mxCell>
        <mxCell id="n9IlJwQfkiTQMn5sJXzG-143" style="edgeStyle=orthogonalEdgeStyle;rounded=0;orthogonalLoop=1;jettySize=auto;html=1;entryX=0.5;entryY=1;entryDx=0;entryDy=0;" edge="1" parent="1" source="n9IlJwQfkiTQMn5sJXzG-120" target="n9IlJwQfkiTQMn5sJXzG-138">
          <mxGeometry relative="1" as="geometry" />
        </mxCell>
        <mxCell id="n9IlJwQfkiTQMn5sJXzG-179" style="edgeStyle=orthogonalEdgeStyle;rounded=0;orthogonalLoop=1;jettySize=auto;html=1;" edge="1" parent="1" source="n9IlJwQfkiTQMn5sJXzG-144" target="n9IlJwQfkiTQMn5sJXzG-178">
          <mxGeometry relative="1" as="geometry" />
        </mxCell>
        <mxCell id="n9IlJwQfkiTQMn5sJXzG-144" value="" style="rounded=1;whiteSpace=wrap;html=1;fillColor=#f5f5f5;strokeColor=#666666;fontColor=#333333;" vertex="1" parent="1">
          <mxGeometry x="90" y="650" width="300" height="40" as="geometry" />
        </mxCell>
        <mxCell id="n9IlJwQfkiTQMn5sJXzG-145" value="tr_dut.miso_fdata_q" style="text;html=1;align=center;verticalAlign=middle;resizable=0;points=[];autosize=1;strokeColor=none;fillColor=none;" vertex="1" parent="1">
          <mxGeometry x="175" y="657.5" width="130" height="30" as="geometry" />
        </mxCell>
        <mxCell id="n9IlJwQfkiTQMn5sJXzG-148" value="&lt;b&gt;&lt;font style=&quot;font-size: 20px;&quot;&gt;&lt;font&gt;MONITOR (CONSUMER)&lt;/font&gt;&lt;font&gt;&lt;br&gt;&lt;/font&gt;&lt;/font&gt;&lt;/b&gt;" style="text;html=1;align=center;verticalAlign=middle;resizable=0;points=[];autosize=1;strokeColor=none;fillColor=none;" vertex="1" parent="1">
          <mxGeometry x="130" y="100" width="250" height="40" as="geometry" />
        </mxCell>
        <mxCell id="n9IlJwQfkiTQMn5sJXzG-149" value="&lt;b&gt;&lt;font style=&quot;font-size: 20px;&quot;&gt;IF&lt;/font&gt;&lt;/b&gt;" style="whiteSpace=wrap;html=1;" vertex="1" parent="1">
          <mxGeometry x="520" y="100" width="60" height="670" as="geometry" />
        </mxCell>
        <mxCell id="n9IlJwQfkiTQMn5sJXzG-150" value="MOSI" style="text;html=1;align=center;verticalAlign=middle;resizable=0;points=[];autosize=1;strokeColor=none;fillColor=none;" vertex="1" parent="1">
          <mxGeometry x="450" y="277" width="50" height="30" as="geometry" />
        </mxCell>
        <mxCell id="n9IlJwQfkiTQMn5sJXzG-151" value="MISO" style="text;html=1;align=center;verticalAlign=middle;resizable=0;points=[];autosize=1;strokeColor=none;fillColor=none;" vertex="1" parent="1">
          <mxGeometry x="451" y="697.5" width="50" height="30" as="geometry" />
        </mxCell>
        <mxCell id="n9IlJwQfkiTQMn5sJXzG-152" value="tr_dut.* @(posedge sys_clk)" style="rounded=1;whiteSpace=wrap;html=1;fillColor=#fff2cc;strokeColor=#d6b656;" vertex="1" parent="1">
          <mxGeometry x="90" y="150" width="300" height="40" as="geometry" />
        </mxCell>
        <mxCell id="n9IlJwQfkiTQMn5sJXzG-154" style="edgeStyle=orthogonalEdgeStyle;rounded=0;orthogonalLoop=1;jettySize=auto;html=1;entryX=1;entryY=0.5;entryDx=0;entryDy=0;strokeWidth=3;startArrow=classic;startFill=1;" edge="1" parent="1" source="n9IlJwQfkiTQMn5sJXzG-153" target="n9IlJwQfkiTQMn5sJXzG-152">
          <mxGeometry relative="1" as="geometry" />
        </mxCell>
        <mxCell id="n9IlJwQfkiTQMn5sJXzG-153" value="" style="shape=waypoint;sketch=0;size=6;pointerEvents=1;points=[];fillColor=none;resizable=0;rotatable=0;perimeter=centerPerimeter;snapToPoint=1;" vertex="1" parent="1">
          <mxGeometry x="510" y="160" width="20" height="20" as="geometry" />
        </mxCell>
        <mxCell id="n9IlJwQfkiTQMn5sJXzG-155" value="{spi_if}" style="text;html=1;align=center;verticalAlign=middle;resizable=0;points=[];autosize=1;strokeColor=none;fillColor=none;" vertex="1" parent="1">
          <mxGeometry x="440" y="140" width="60" height="30" as="geometry" />
        </mxCell>
        <mxCell id="n9IlJwQfkiTQMn5sJXzG-157" value="MOSI" style="text;html=1;align=center;verticalAlign=middle;resizable=0;points=[];autosize=1;strokeColor=none;fillColor=none;" vertex="1" parent="1">
          <mxGeometry x="450" y="560" width="50" height="30" as="geometry" />
        </mxCell>
        <mxCell id="n9IlJwQfkiTQMn5sJXzG-158" value="MISO" style="text;html=1;align=center;verticalAlign=middle;resizable=0;points=[];autosize=1;strokeColor=none;fillColor=none;" vertex="1" parent="1">
          <mxGeometry x="450" y="419" width="50" height="30" as="geometry" />
        </mxCell>
        <mxCell id="n9IlJwQfkiTQMn5sJXzG-162" style="edgeStyle=orthogonalEdgeStyle;rounded=0;orthogonalLoop=1;jettySize=auto;html=1;entryX=1;entryY=0.5;entryDx=0;entryDy=0;startArrow=classic;startFill=1;strokeWidth=4;" edge="1" parent="1" source="n9IlJwQfkiTQMn5sJXzG-159" target="n9IlJwQfkiTQMn5sJXzG-149">
          <mxGeometry relative="1" as="geometry" />
        </mxCell>
        <mxCell id="n9IlJwQfkiTQMn5sJXzG-159" value="&lt;b&gt;&lt;font style=&quot;font-size: 26px;&quot;&gt;DUT&lt;/font&gt;&lt;/b&gt;" style="whiteSpace=wrap;html=1;" vertex="1" parent="1">
          <mxGeometry x="680" y="69.5" width="220" height="731" as="geometry" />
        </mxCell>
        <mxCell id="n9IlJwQfkiTQMn5sJXzG-163" value="{spi_if}" style="text;html=1;align=center;verticalAlign=middle;resizable=0;points=[];autosize=1;strokeColor=none;fillColor=none;" vertex="1" parent="1">
          <mxGeometry x="600" y="403" width="60" height="30" as="geometry" />
        </mxCell>
        <mxCell id="n9IlJwQfkiTQMn5sJXzG-165" value="&lt;div&gt;&lt;b&gt;FIFO&amp;nbsp;&lt;/b&gt;&lt;/div&gt;&lt;div&gt;&lt;i&gt;(tr_dut from consumer)&lt;/i&gt;&lt;/div&gt;" style="whiteSpace=wrap;html=1;rounded=1;" vertex="1" parent="1">
          <mxGeometry x="-350" y="180" width="160" height="80" as="geometry" />
        </mxCell>
        <mxCell id="n9IlJwQfkiTQMn5sJXzG-166" value="&lt;div&gt;&lt;b&gt;FIFO &lt;i&gt;&lt;br&gt;&lt;/i&gt;&lt;/b&gt;&lt;/div&gt;&lt;div&gt;&lt;i&gt;(tr_dut from driver)&lt;/i&gt;&lt;/div&gt;" style="whiteSpace=wrap;html=1;rounded=1;" vertex="1" parent="1">
          <mxGeometry x="-350" y="280" width="160" height="80" as="geometry" />
        </mxCell>
        <mxCell id="n9IlJwQfkiTQMn5sJXzG-180" style="edgeStyle=orthogonalEdgeStyle;rounded=0;orthogonalLoop=1;jettySize=auto;html=1;entryX=1;entryY=0.5;entryDx=0;entryDy=0;" edge="1" parent="1" source="n9IlJwQfkiTQMn5sJXzG-169" target="n9IlJwQfkiTQMn5sJXzG-167">
          <mxGeometry relative="1" as="geometry" />
        </mxCell>
        <mxCell id="n9IlJwQfkiTQMn5sJXzG-169" value="transaction tr_dut&lt;br&gt;@(sys_clk)" style="rounded=1;whiteSpace=wrap;html=1;" vertex="1" parent="1">
          <mxGeometry x="-100" y="130" width="100" height="600" as="geometry" />
        </mxCell>
        <mxCell id="n9IlJwQfkiTQMn5sJXzG-170" value="" style="shape=waypoint;sketch=0;size=6;pointerEvents=1;points=[];fillColor=none;resizable=0;rotatable=0;perimeter=centerPerimeter;snapToPoint=1;" vertex="1" parent="1">
          <mxGeometry x="-10" y="160" width="20" height="20" as="geometry" />
        </mxCell>
        <mxCell id="n9IlJwQfkiTQMn5sJXzG-171" style="edgeStyle=orthogonalEdgeStyle;rounded=0;orthogonalLoop=1;jettySize=auto;html=1;entryX=0.65;entryY=0.8;entryDx=0;entryDy=0;entryPerimeter=0;" edge="1" parent="1" source="n9IlJwQfkiTQMn5sJXzG-152" target="n9IlJwQfkiTQMn5sJXzG-170">
          <mxGeometry relative="1" as="geometry" />
        </mxCell>
        <mxCell id="n9IlJwQfkiTQMn5sJXzG-172" value="" style="shape=waypoint;sketch=0;size=6;pointerEvents=1;points=[];fillColor=none;resizable=0;rotatable=0;perimeter=centerPerimeter;snapToPoint=1;" vertex="1" parent="1">
          <mxGeometry x="-10" y="237.5" width="20" height="20" as="geometry" />
        </mxCell>
        <mxCell id="n9IlJwQfkiTQMn5sJXzG-173" style="edgeStyle=orthogonalEdgeStyle;rounded=0;orthogonalLoop=1;jettySize=auto;html=1;entryX=0.65;entryY=0.775;entryDx=0;entryDy=0;entryPerimeter=0;" edge="1" parent="1" source="n9IlJwQfkiTQMn5sJXzG-11" target="n9IlJwQfkiTQMn5sJXzG-172">
          <mxGeometry relative="1" as="geometry" />
        </mxCell>
        <mxCell id="n9IlJwQfkiTQMn5sJXzG-174" value="" style="shape=waypoint;sketch=0;size=6;pointerEvents=1;points=[];fillColor=none;resizable=0;rotatable=0;perimeter=centerPerimeter;snapToPoint=1;" vertex="1" parent="1">
          <mxGeometry x="-10" y="379.5" width="20" height="20" as="geometry" />
        </mxCell>
        <mxCell id="n9IlJwQfkiTQMn5sJXzG-175" style="edgeStyle=orthogonalEdgeStyle;rounded=0;orthogonalLoop=1;jettySize=auto;html=1;exitX=0;exitY=0.5;exitDx=0;exitDy=0;entryX=0.9;entryY=0.525;entryDx=0;entryDy=0;entryPerimeter=0;" edge="1" parent="1" source="n9IlJwQfkiTQMn5sJXzG-82" target="n9IlJwQfkiTQMn5sJXzG-174">
          <mxGeometry relative="1" as="geometry" />
        </mxCell>
        <mxCell id="n9IlJwQfkiTQMn5sJXzG-176" value="" style="shape=waypoint;sketch=0;size=6;pointerEvents=1;points=[];fillColor=none;resizable=0;rotatable=0;perimeter=centerPerimeter;snapToPoint=1;" vertex="1" parent="1">
          <mxGeometry x="-10" y="520" width="20" height="20" as="geometry" />
        </mxCell>
        <mxCell id="n9IlJwQfkiTQMn5sJXzG-177" style="edgeStyle=orthogonalEdgeStyle;rounded=0;orthogonalLoop=1;jettySize=auto;html=1;entryX=0;entryY=0.35;entryDx=0;entryDy=0;entryPerimeter=0;" edge="1" parent="1" source="n9IlJwQfkiTQMn5sJXzG-113" target="n9IlJwQfkiTQMn5sJXzG-176">
          <mxGeometry relative="1" as="geometry" />
        </mxCell>
        <mxCell id="n9IlJwQfkiTQMn5sJXzG-178" value="" style="shape=waypoint;sketch=0;size=6;pointerEvents=1;points=[];fillColor=none;resizable=0;rotatable=0;perimeter=centerPerimeter;snapToPoint=1;" vertex="1" parent="1">
          <mxGeometry x="-10" y="659.75" width="20" height="20" as="geometry" />
        </mxCell>
        <mxCell id="n9IlJwQfkiTQMn5sJXzG-181" value="&lt;font style=&quot;font-size: 24px;&quot;&gt;&lt;b&gt;SCOREBOARD&lt;/b&gt;&lt;/font&gt;" style="text;html=1;align=center;verticalAlign=middle;resizable=0;points=[];autosize=1;strokeColor=none;fillColor=none;" vertex="1" parent="1">
          <mxGeometry x="-370" y="100" width="200" height="40" as="geometry" />
        </mxCell>
      </root>
    </mxGraphModel>
  </diagram>
</mxfile>
